<?xml version="1.0" encoding="UTF-8"?><svg id="Ebene_2" xmlns="http://www.w3.org/2000/svg" viewBox="0 0 24.35 3.37"><defs><style>.cls-1{fill:#0014e6;}.cls-2{fill:#ff7256;}</style></defs><g id="Ebene_1-2"><path class="cls-1" d="M11.14,2.23c-.28,0-.5-.22-.5-.5s.22-.5,.5-.5,.5,.22,.5,.5-.22,.5-.5,.5m0-1.43c-.51,0-.93,.42-.93,.93s.42,.93,.93,.93,.93-.42,.93-.93-.42-.93-.93-.93"/><path class="cls-1" d="M4.26,2.23c-.28,0-.5-.22-.5-.5s.22-.5,.5-.5,.5,.22,.5,.5-.22,.5-.5,.5m0-1.43c-.51,0-.93,.42-.93,.93s.42,.93,.93,.93,.93-.42,.93-.93-.42-.93-.93-.93"/><path class="cls-1" d="M.93,2.23c-.28,0-.5-.22-.5-.5s.22-.5,.5-.5,.5,.22,.5,.5-.22,.5-.5,.5m.93-.5V0h-.43V.95c-.14-.09-.32-.15-.5-.15-.51,0-.93,.42-.93,.93s.42,.93,.93,.93,.93-.42,.93-.93Z"/><path class="cls-1" d="M7.22,2.23c-.28,0-.5-.22-.5-.5s.22-.5,.5-.5,.5,.22,.5,.5-.22,.5-.5,.5m.93-2.23h-.43V.95c-.14-.09-.32-.15-.5-.15-.51,0-.93,.42-.93,.93s.42,.93,.93,.93,.93-.42,.93-.93V0Z"/><rect class="cls-1" x="5.52" y=".8" width=".43" height="1.86"/><path class="cls-1" d="M2.19,1.73h0v.93h.43v-.93c0-.28,.22-.5,.5-.5v-.43c-.51,0-.93,.42-.93,.93"/><path class="cls-1" d="M9.7,2.09c-.09,.09-.22,.15-.35,.15-.28,0-.5-.22-.5-.5s.22-.5,.5-.5c.14,0,.26,.06,.35,.15l.3-.3c-.17-.17-.4-.27-.66-.27-.51,0-.93,.42-.93,.93s.42,.93,.93,.93c.26,0,.49-.1,.66-.27l-.3-.3Z"/><path class="cls-1" d="M13.31,.8c-.51,0-.93,.42-.93,.93h0v.93h.43v-.93h0c0-.28,.22-.5,.5-.5s.5,.22,.5,.5v.93h.43v-.93c0-.51-.42-.93-.93-.93"/><path class="cls-2" d="M4.5,1.73c0,.13-.11,.24-.24,.24s-.24-.11-.24-.24,.11-.24,.24-.24,.24,.11,.24,.24"/><g><path class="cls-2" d="M15.5,1.71l-.47,.43v.54h-.17V.1h.17V1.92l1.16-1.06h.22l-.78,.73,.86,1.08h-.22l-.77-.97Z"/><path class="cls-2" d="M18.4,1.81h-1.56c0,.14,.04,.27,.11,.38,.07,.11,.16,.2,.27,.26,.11,.06,.24,.09,.39,.09,.12,0,.23-.02,.33-.06,.1-.04,.18-.11,.25-.19l.1,.11c-.08,.1-.18,.17-.3,.22-.12,.05-.25,.08-.39,.08-.18,0-.34-.04-.48-.12-.14-.08-.25-.19-.33-.33s-.12-.3-.12-.48,.04-.33,.11-.48c.08-.14,.18-.25,.31-.33,.13-.08,.28-.12,.45-.12s.31,.04,.44,.12c.13,.08,.23,.19,.31,.33,.08,.14,.11,.3,.11,.47v.05Zm-1.21-.73c-.1,.06-.18,.14-.25,.24-.06,.1-.1,.22-.11,.35h1.39c0-.13-.04-.25-.1-.35s-.15-.18-.25-.24c-.1-.06-.22-.09-.34-.09s-.24,.03-.34,.09Z"/><path class="cls-2" d="M20.35,1.04c.13,.13,.2,.32,.2,.57v1.06h-.17V1.63c0-.2-.05-.36-.15-.47-.1-.11-.25-.16-.43-.16-.21,0-.38,.06-.5,.19-.12,.13-.18,.3-.18,.52v.97h-.17V.86h.17v.39c.06-.13,.16-.23,.28-.3,.12-.07,.27-.11,.44-.11,.23,0,.41,.07,.54,.2Z"/><path class="cls-2" d="M22.69,.86l-.93,2.06c-.07,.16-.15,.27-.24,.34s-.2,.1-.33,.1c-.08,0-.16-.01-.23-.04-.07-.03-.14-.07-.19-.12l.09-.13c.09,.1,.21,.14,.34,.14,.09,0,.16-.02,.23-.07s.12-.13,.17-.25l.1-.22-.82-1.81h.18l.73,1.62,.73-1.62h.18Z"/><path class="cls-2" d="M24.17,1.02c.12,.12,.18,.28,.18,.51v1.15h-.17v-.32c-.06,.11-.14,.19-.25,.25s-.25,.09-.4,.09c-.2,0-.36-.05-.48-.14-.12-.09-.18-.22-.18-.38s.05-.27,.16-.37,.28-.14,.52-.14h.62v-.15c0-.17-.05-.3-.14-.39-.09-.09-.23-.13-.4-.13-.12,0-.24,.02-.35,.06-.11,.04-.2,.1-.28,.17l-.09-.13c.09-.08,.2-.14,.33-.19,.13-.05,.26-.07,.4-.07,.22,0,.4,.06,.52,.17Zm-.23,1.43c.11-.07,.19-.17,.24-.3v-.34h-.62c-.18,0-.31,.03-.39,.1-.08,.06-.12,.15-.12,.27s.04,.21,.13,.28c.09,.07,.21,.1,.37,.1,.15,0,.28-.03,.38-.1Z"/></g></g></svg>