<svg xmlns="http://www.w3.org/2000/svg" xmlns:xlink="http://www.w3.org/1999/xlink" width="1277.168" height="194.362" viewBox="0 0 1277.168 194.362">
  <defs>
    <clipPath id="clip-path">
      <rect id="Rectangle_945" data-name="Rectangle 945" width="1277.167" height="194.362" fill="none"/>
    </clipPath>
  </defs>
  <g id="Group_1182" data-name="Group 1182" clip-path="url(#clip-path)">
    <path id="Path_4129" data-name="Path 4129" d="M158.916,8.337a52.927,52.927,0,1,0,52.927,52.927A53,53,0,0,0,158.916,8.337m0,81.625a28.7,28.7,0,1,1,28.7-28.7,28.812,28.812,0,0,1-28.7,28.7" transform="translate(477.141 37.533)" fill="#0016e6"/>
    <path id="Path_4130" data-name="Path 4130" d="M87.558,8.337a53.046,53.046,0,1,0,52.927,52.927A53,53,0,0,0,87.558,8.337m0,81.625a28.7,28.7,0,1,1,28.7-28.7,28.812,28.812,0,0,1-28.7,28.7" transform="translate(155.902 37.533)" fill="#0016e6"/>
    <path id="Path_4131" data-name="Path 4131" d="M106.322,98.8V0h-24.7V54.1a53.924,53.924,0,0,0-28.7-8.231,52.927,52.927,0,0,0,0,105.854c29.171,0,53.4-23.526,53.4-52.927m-52.927,28.7a28.579,28.579,0,1,1,28.7-28.461,28.812,28.812,0,0,1-28.7,28.461" transform="translate(0 0.001)" fill="#0016e6"/>
    <path id="Path_4132" data-name="Path 4132" d="M171.614,0h-24.7V54.1a53.891,53.891,0,0,0-28.7-8.231A52.927,52.927,0,1,0,171.14,98.8V0h.473M118.45,127.493a28.7,28.7,0,1,1,28.7-28.7c-.237,15.757-12.935,28.7-28.7,28.7" transform="translate(293.904 0.001)" fill="#0016e6"/>
    <rect id="Rectangle_944" data-name="Rectangle 944" width="24.698" height="106.322" transform="translate(315.203 45.868)" fill="#0016e6"/>
    <path id="Path_4133" data-name="Path 4133" d="M22.788,61.458h0v52.927h24.7V61.458a28.812,28.812,0,0,1,28.7-28.7V8.294c-29.638.237-53.395,23.993-53.395,53.164" transform="translate(102.587 37.339)" fill="#0016e6"/>
    <path id="Path_4134" data-name="Path 4134" d="M160.505,82.071A28.076,28.076,0,0,1,140.512,90.3a28.7,28.7,0,1,1,0-57.395,27.675,27.675,0,0,1,19.994,8.236l17.408-17.408a52.983,52.983,0,1,0-37.638,90.328,54.189,54.189,0,0,0,37.638-15.526Z" transform="translate(393.223 36.956)" fill="#0016e6"/>
    <path id="Path_4135" data-name="Path 4135" d="M181.362,8.337a53,53,0,0,0-52.927,52.927v52.927h24.7V61.264a28.7,28.7,0,0,1,57.4,0v52.927h24.7V61.264c-.7-29.171-24.7-52.927-53.868-52.927" transform="translate(578.188 37.533)" fill="#0016e6"/>
    <path id="Path_4136" data-name="Path 4136" d="M55.415,15.477A13.644,13.644,0,1,1,41.771,29.121,13.642,13.642,0,0,1,55.415,15.477" transform="translate(188.044 69.675)" fill="#fb7b3c"/>
    <text id="Kenya." transform="translate(822.744 133.222)" fill="#fb7b3c" font-size="147" font-family="Rubik-Light, Rubik" font-weight="300"><tspan x="0" y="0" letter-spacing="-0.029em">K</tspan><tspan y="0">enya.</tspan></text>
  </g>
</svg>
