<svg xmlns="http://www.w3.org/2000/svg" xmlns:xlink="http://www.w3.org/1999/xlink" width="1920" height="973" viewBox="0 0 1920 973">
  <defs>
    <clipPath id="clip-path">
      <rect id="cookies" width="1920" height="973" transform="translate(481.362 6753)" fill="#f5f5f5"/>
    </clipPath>
  </defs>
  <g id="Group_1201" data-name="Group 1201" transform="translate(-481 -6753)">
    <g id="Mask_Group_5" data-name="Mask Group 5" transform="translate(-0.362)" clip-path="url(#clip-path)">
      <g id="circle_green_Zeichenfläche-1-Kopie" transform="translate(1031.781 7365.419)">
        <path id="Path_164" data-name="Path 164" d="M422.051,10.94C195.84,10.94,12.47,194.31,12.47,420.521S195.84,830.1,422.051,830.1s409.581-183.37,409.581-409.581S648.262,10.94,422.051,10.94Zm0,629.788c-121.623,0-220.207-98.584-220.207-220.207s98.584-220.207,220.207-220.207S642.258,298.9,642.258,420.521,543.674,640.728,422.051,640.728Z" transform="translate(-12.47 -10.94)" fill="#ff6e4d"/>
      </g>
    </g>
    <path id="Path_4198" data-name="Path 4198" d="M74.746-330.7,59.685-282H34.453V-383.906H74.746Zm63.765,0L123.45-282H98.413V-383.906h40.1Z" transform="translate(1354.547 7610.406)" fill="#ff6e4d"/>
  </g>
</svg>
