<svg width="67" height="67" viewBox="0 0 67 67" fill="none" xmlns="http://www.w3.org/2000/svg">
<path d="M13.2463 0H0V13.2463H13.2463V0Z" fill="white"/>
<path d="M13.2463 26.4926H0V39.7389H13.2463V26.4926Z" fill="white"/>
<path d="M13.2463 52.9852H0V66.2315H13.2463V52.9852Z" fill="white"/>
<path d="M39.7389 52.9852H26.4926V66.2315H39.7389V52.9852Z" fill="white"/>
<path d="M66.2315 52.9852H52.9852V66.2315H66.2315V52.9852Z" fill="white"/>
<path d="M39.7389 26.4926H26.4926V39.7389H39.7389V26.4926Z" fill="white"/>
<path d="M66.2315 26.4926H52.9852V39.7389H66.2315V26.4926Z" fill="white"/>
<path d="M52.9852 39.7389H39.7389V52.9852H52.9852V39.7389Z" fill="#01FF4F"/>
<path d="M26.4926 39.7389H13.2463V52.9852H26.4926V39.7389Z" fill="#01FF4F"/>
<path d="M26.4926 13.2463H13.2463V26.4926H26.4926V13.2463Z" fill="#01FF4F"/>
<path d="M52.9852 13.2463H39.7389V26.4926H52.9852V13.2463Z" fill="#01FF4F"/>
<path d="M39.7389 0H26.4926V13.2463H39.7389V0Z" fill="white"/>
<path d="M66.2315 0H52.9852V13.2463H66.2315V0Z" fill="white"/>
</svg>
