<?xml version="1.0" encoding="utf-8"?>
<!-- Generator: Adobe Illustrator 27.5.0, SVG Export Plug-In . SVG Version: 6.00 Build 0)  -->
<svg version="1.1" id="Group_1184" xmlns="http://www.w3.org/2000/svg" xmlns:xlink="http://www.w3.org/1999/xlink" x="0px" y="0px"
	 viewBox="0 0 816.4 262.9" style="enable-background:new 0 0 816.4 262.9;" xml:space="preserve">
<style type="text/css">
	.st0{clip-path:url(#SVGID_00000084516966026344482720000003717152332311881150_);}
	.st1{fill:#FF6E4D;}
	.st2{fill:#00E2C3;}
	.st3{fill:#000CEB;}
	.st4{font-family:'Montserrat-ExtraBold';}
	.st5{font-size:34.927px;}
	.st6{font-family:'Montserrat-Regular';}
	.st7{font-size:15.443px;}
	.st8{fill:#FFFFFF;}
	.st9{font-size:36.556px;}
	.st10{font-size:16.164px;}
	.st11{clip-path:url(#SVGID_00000041274076999037566360000007472819035769699761_);}
</style>
<g id="Group_1181">
	<g>
		<defs>
			<rect id="SVGID_1_" y="0" width="816.4" height="262.9"/>
		</defs>
		<clipPath id="SVGID_00000097495866121806024370000014216968399746274700_">
			<use xlink:href="#SVGID_1_"  style="overflow:visible;"/>
		</clipPath>
		<g id="Group_1180" style="clip-path:url(#SVGID_00000097495866121806024370000014216968399746274700_);">
			<path id="Path_4132" class="st1" d="M536.1,116.6h2.7C531.3,50.2,475.1,0,408.2,0l0,0c-66.9,0-123.1,50.2-130.6,116.6h2.7v29.6
				h-2.7c8.2,72.1,73.3,124,145.4,115.8c60.9-6.9,108.9-54.9,115.8-115.8h-2.7V116.6z"/>
			<path id="Path_4133" class="st1" d="M458.2,181.4c-13.2,13.3-31.2,20.7-50,20.7h0c-39,0-70.7-31.6-70.7-70.7
				c0-39,31.6-70.7,70.7-70.7c39,0,70.7,31.6,70.7,70.7C478.9,150.2,471.4,168.1,458.2,181.4"/>
			<path id="Path_4134" class="st1" d="M225.4,96.8c-15.2-48-59.7-80.7-110.1-80.7h0C51.7,16.1,0.1,67.8,0.2,131.4
				s51.7,115.2,115.4,115.2s115.2-51.7,115.2-115.4C230.7,119.5,228.9,107.9,225.4,96.8"/>
			<path id="Path_4135" class="st1" d="M647.4,100.2c-5.6-18.4-16.1-35-30.3-47.9c-41.9,44.4-41.9,113.8,0,158.2
				c14.2-12.9,24.7-29.5,30.3-47.9C636.2,143.3,636.2,119.5,647.4,100.2"/>
			<path id="Path_4136" class="st1" d="M816.4,131.4c0,63.7-51.6,115.3-115.3,115.4c-31.8,0-62.2-13.1-84-36.2
				c14.2-12.9,24.7-29.5,30.3-47.9c-11.2-19.3-11.2-43.1,0-62.4c-5.6-18.4-16.1-35-30.3-47.9C638.9,29.2,669.2,16,701,16.1h0
				C764.7,16.1,816.4,67.7,816.4,131.4"/>
			<path id="Path_4137" class="st2" d="M378.4,131.4c0,59.1-48,107-107.1,107c-47.1,0-88.6-30.8-102.3-75.8
				c11.2-19.3,11.2-43.1,0-62.4c17.2-56.6,77-88.5,133.5-71.3C347.6,42.7,378.4,84.3,378.4,131.4"/>
			<path id="Path_4138" class="st2" d="M328.9,131.4c0,0.5,0,1,0,1.4c0,0.3,0,0.6,0,0.9c0,0.3,0,0.6,0,0.9c0,0.3,0,0.7-0.1,1
				c0,0.6-0.1,1.1-0.1,1.6c0,0.5-0.1,1-0.2,1.4c-0.1,0.4-0.1,0.9-0.2,1.4c0,0.1,0,0.1,0,0.1c-0.1,0.5-0.1,0.9-0.2,1.4
				c-0.1,0.4-0.2,0.8-0.2,1.3c0,0,0,0.1,0,0.1c-0.1,0.5-0.2,0.9-0.3,1.4c-0.1,0.4-0.2,0.8-0.3,1.2l-0.4,1.6
				c-0.1,0.4-0.3,0.9-0.4,1.4c-0.1,0.4-0.2,0.8-0.4,1.2c-0.2,0.7-0.5,1.5-0.8,2.2c-0.1,0.4-0.3,0.7-0.4,1.1l-0.3,0.8
				c-0.2,0.5-0.4,1-0.6,1.4c-0.1,0.2-0.2,0.4-0.3,0.6c-0.2,0.6-0.5,1.1-0.8,1.6l0,0.1c-0.3,0.6-0.7,1.3-1,1.9
				c-0.3,0.6-0.7,1.2-1,1.8c-0.1,0.1-0.1,0.2-0.2,0.3c-0.3,0.6-0.7,1.1-1,1.6l0,0.1c-0.3,0.5-0.7,1-1,1.5c-0.1,0.1-0.2,0.2-0.2,0.3
				c-0.1,0.1-0.1,0.2-0.2,0.2c-0.4,0.5-0.7,1-1.1,1.5c0,0.1-0.1,0.1-0.1,0.2c-0.4,0.5-0.8,1-1.2,1.5c-0.6,0.8-1.3,1.5-1.9,2.2
				c-0.5,0.5-0.9,1-1.4,1.5c-10.8,10.8-25.4,16.9-40.7,16.9c-0.6,0-1.2,0-1.8,0c-0.5,0-1,0-1.5-0.1c-0.4,0-0.7,0-1.1-0.1
				c0,0-0.1,0-0.1,0c-0.5,0-0.9-0.1-1.4-0.1c-0.4,0-0.9-0.1-1.3-0.1c-1.2-0.1-2.4-0.3-3.6-0.6c-0.4-0.1-0.8-0.2-1.2-0.2
				c-0.5-0.1-1-0.2-1.5-0.3l-0.3-0.1c-0.4-0.1-0.8-0.2-1.2-0.3c-0.1,0-0.2,0-0.3-0.1c-0.4-0.1-0.9-0.2-1.3-0.4
				c-0.6-0.2-1.2-0.4-1.8-0.6c-0.5-0.2-1.1-0.4-1.6-0.6s-1-0.4-1.6-0.6c-0.5-0.2-0.9-0.4-1.4-0.6c-0.1,0-0.1-0.1-0.2-0.1
				c-0.3-0.1-0.6-0.3-0.9-0.4s-0.6-0.3-0.9-0.4c-2.4-1.1-4.7-2.4-6.9-3.9c-0.3-0.2-0.6-0.4-0.9-0.6c-0.2-0.1-0.4-0.3-0.6-0.4
				c-0.8-0.5-1.5-1.1-2.2-1.7c-1-0.8-1.9-1.6-2.9-2.4c-0.3-0.3-0.7-0.6-1-0.9l0,0c-0.4-0.4-0.8-0.8-1.2-1.1c-0.3-0.3-0.7-0.7-1-1
				c-0.5-0.6-1.1-1.1-1.6-1.7c-0.2-0.3-0.4-0.5-0.7-0.8c-0.4-0.5-0.8-1-1.2-1.5l-0.9-1.2c7.1-22.6,7.1-46.7,0-69.3l0.9-1.2
				c0.4-0.5,0.8-1,1.2-1.5c0.2-0.3,0.4-0.5,0.7-0.8c0.5-0.6,1-1.1,1.6-1.7c0.3-0.3,0.6-0.7,1-1c0.3-0.3,0.6-0.6,0.9-0.9
				c0.3-0.3,0.6-0.6,0.9-0.9c0.2-0.2,0.5-0.5,0.8-0.7c0.3-0.3,0.6-0.5,0.9-0.8c0.9-0.7,1.7-1.4,2.6-2.1c0.4-0.3,0.9-0.7,1.3-1
				c0.5-0.4,1.1-0.8,1.6-1.1c0.3-0.2,0.7-0.4,1-0.6c0.3-0.2,0.6-0.4,0.9-0.5s0.6-0.4,0.9-0.5c0.4-0.2,0.8-0.5,1.2-0.7
				c0.4-0.2,0.9-0.5,1.4-0.7s0.9-0.5,1.4-0.7c0.1-0.1,0.2-0.1,0.4-0.2c0.4-0.2,0.8-0.3,1.1-0.5c0.4-0.2,0.8-0.3,1.2-0.5
				c0.3-0.1,0.5-0.2,0.8-0.3c0.5-0.2,0.9-0.4,1.4-0.5c0.4-0.2,0.9-0.3,1.4-0.5c0.6-0.2,1.2-0.4,1.8-0.6c0.4-0.1,0.9-0.3,1.3-0.4
				c0.1,0,0.2-0.1,0.3-0.1c0.4-0.1,0.8-0.2,1.2-0.3c0.1,0,0.2-0.1,0.3-0.1c0.5-0.1,1-0.2,1.5-0.3c0.4-0.1,0.8-0.2,1.2-0.2
				c1.2-0.2,2.4-0.4,3.6-0.6c0.4-0.1,0.9-0.1,1.3-0.1c0.5-0.1,0.9-0.1,1.4-0.1c0,0,0.1,0,0.1,0c0.4,0,0.7-0.1,1.1-0.1
				c0.5,0,1-0.1,1.5-0.1c0.6,0,1.2,0,1.8,0c0.6,0,1.2,0,1.9,0c0.5,0,1.1,0,1.6,0.1c0.1,0,0.2,0,0.3,0c0.5,0,0.9,0.1,1.3,0.1
				c1.9,0.2,3.7,0.4,5.5,0.8c0.5,0.1,1,0.2,1.5,0.3c0.1,0,0.1,0,0.2,0c0.5,0.1,1,0.2,1.5,0.3c1.8,0.5,3.6,1,5.4,1.6
				c0.4,0.2,0.9,0.3,1.3,0.5c0.4,0.1,0.7,0.3,1.1,0.4c0.2,0.1,0.5,0.2,0.7,0.3c1,0.4,1.9,0.8,2.8,1.3c0.5,0.2,1,0.5,1.4,0.7
				c2.8,1.5,5.5,3.2,8,5.1c0.3,0.2,0.6,0.4,0.8,0.6c0.1,0.1,0.2,0.2,0.3,0.2c0.3,0.2,0.6,0.5,0.9,0.7c0.4,0.3,0.7,0.6,1.1,0.9
				c0.7,0.6,1.4,1.2,2,1.8c0.3,0.3,0.7,0.6,1,1s0.6,0.7,1,1s0.6,0.7,0.9,1c0.6,0.7,1.2,1.4,1.8,2.1c0.2,0.3,0.5,0.6,0.7,0.9
				c0.5,0.7,1.1,1.4,1.6,2.1c0.5,0.7,1,1.3,1.4,2c0.4,0.5,0.7,1.1,1,1.6c0,0,0.1,0.1,0.1,0.1c0.4,0.6,0.7,1.2,1,1.8
				c0.4,0.6,0.7,1.2,1,1.9c0,0,0,0,0,0.1c0.3,0.6,0.6,1.2,0.9,1.8c0.1,0.1,0.1,0.2,0.2,0.4c0.2,0.5,0.5,1.1,0.7,1.6
				c0.1,0.1,0.1,0.3,0.2,0.4c0.3,0.6,0.5,1.2,0.7,1.9s0.5,1.3,0.7,1.9c0.1,0.3,0.2,0.7,0.3,1.1c0.1,0.4,0.3,0.8,0.4,1.3
				c0.3,1,0.5,1.9,0.8,2.9c0.1,0.4,0.2,0.8,0.2,1.2c0,0.1,0,0.2,0.1,0.3c0.1,0.4,0.2,0.8,0.2,1.3c0.2,1,0.3,1.9,0.4,2.9
				c0.1,0.5,0.1,0.9,0.2,1.4c0.1,0.6,0.1,1.1,0.1,1.7c0,0.3,0,0.7,0.1,1c0,0.3,0,0.6,0,0.9s0,0.6,0,0.9
				C328.9,130.5,328.9,130.9,328.9,131.4"/>
			<path id="Path_4139" class="st2" d="M638.4,130c0,11,2.9,21.7,8.4,31.2c-17.2,56.5-77,88.4-133.5,71.2
				c-17.2-5.2-32.8-14.7-45.3-27.5h0v0c-6-6.1-11.2-12.9-15.6-20.2c-3.4-5.7-6.2-11.6-8.5-17.8v0c-8.7-23.8-8.7-49.8,0-73.6v0
				c5.2-14.2,13.4-27.2,24.1-38.1h0v0c41.4-42.2,109.2-42.9,151.4-1.5c12.8,12.5,22.2,28.1,27.5,45.2
				C641.3,108.2,638.4,119,638.4,130"/>
			<path id="Path_4140" class="st3" d="M360.5,151.5c0,0.1,0.1,0.2,0.1,0.3c0,0.1,0.1,0.2,0.1,0.2
				C360.6,151.8,360.6,151.6,360.5,151.5"/>
			<path id="Path_4141" class="st3" d="M360.5,151.5c0,0.1,0.1,0.2,0.1,0.3c0,0.1,0.1,0.2,0.1,0.2
				C360.6,151.8,360.6,151.6,360.5,151.5"/>
			<path id="Path_4142" class="st3" d="M356.6,134.2c0-0.4,0-0.8,0-1.2C356.5,133.5,356.5,133.8,356.6,134.2"/>
			<path id="Path_4143" class="st3" d="M356.7,136c-0.1-0.6-0.1-1.2-0.1-1.7C356.6,134.8,356.6,135.4,356.7,136"/>
			<path id="Path_4144" class="st3" d="M356.6,128.6c0,0.4,0,0.8,0,1.2C356.5,129.4,356.5,129,356.6,128.6"/>
			<path id="Path_4145" class="st3" d="M356.7,127c0,0.6-0.1,1.1-0.1,1.7C356.6,128.1,356.6,127.5,356.7,127"/>
			<path id="Path_4146" class="st3" d="M357.8,143.1c-0.1-0.3-0.1-0.6-0.2-1c0-0.1,0-0.2,0-0.3C357.6,142.3,357.7,142.7,357.8,143.1
				"/>
			<path id="Path_4147" class="st3" d="M357.5,141.8C357.5,141.8,357.5,141.8,357.5,141.8c-0.1-0.3-0.1-0.6-0.2-1
				C357.4,141.1,357.4,141.4,357.5,141.8"/>
			<path id="Path_4148" class="st3" d="M357.1,123.4c-0.1,0.4-0.1,0.8-0.2,1.2c0-0.4,0.1-0.7,0.2-1.1
				C357.1,123.5,357.1,123.5,357.1,123.4"/>
			<path id="Path_4149" class="st3" d="M358.4,117.3c-0.2,0.8-0.4,1.6-0.6,2.4c0.1-0.4,0.2-0.8,0.3-1.2
				C358.2,118.1,358.3,117.7,358.4,117.3"/>
			<path id="Path_4150" class="st3" d="M358.8,146.9c0.1,0.5,0.3,0.9,0.4,1.3c0-0.1,0-0.1-0.1-0.2
				C359.1,147.6,358.9,147.3,358.8,146.9"/>
			<path id="Path_4151" class="st3" d="M365.8,161.1c0.2,0.3,0.4,0.5,0.6,0.8c-0.1-0.2-0.2-0.3-0.4-0.5
				C365.9,161.3,365.9,161.2,365.8,161.1"/>
			<path id="Path_4152" class="st3" d="M360.7,152c0-0.1-0.1-0.2-0.1-0.2c0-0.1-0.1-0.2-0.1-0.3C360.6,151.6,360.6,151.8,360.7,152"
				/>
			<path id="Path_4153" class="st3" d="M367.7,163.6c0.2,0.2,0.3,0.4,0.5,0.6C368,164,367.8,163.8,367.7,163.6"/>
			<path id="Path_4154" class="st3" d="M378,173.4c0.2,0.1,0.3,0.3,0.5,0.4l0,0C378.3,173.7,378.2,173.5,378,173.4"/>
			<path id="Path_4155" class="st3" d="M375.6,171.6L375.6,171.6L375.6,171.6"/>
			<path id="Path_4156" class="st3" d="M373.9,170.1c0.1,0.1,0.2,0.2,0.4,0.3c0,0-0.1-0.1-0.1-0.1
				C374,170.2,373.9,170.2,373.9,170.1"/>
			<path id="Path_4157" class="st3" d="M379.4,174.4c0.5,0.4,1.1,0.7,1.7,1.1C380.5,175.1,380,174.8,379.4,174.4
				C379.5,174.4,379.4,174.4,379.4,174.4"/>
			<path id="Path_4158" class="st3" d="M368.2,164.2c0,0.1,0.1,0.1,0.1,0.2C368.3,164.3,368.2,164.3,368.2,164.2
				C368.2,164.2,368.2,164.2,368.2,164.2"/>
			<path id="Path_4159" class="st3" d="M370.6,167c0.4,0.4,0.8,0.8,1.2,1.3C371.4,167.8,371,167.4,370.6,167"/>
			<path id="Path_4160" class="st3" d="M371.8,168.2L371.8,168.2L371.8,168.2L371.8,168.2"/>
			<path id="Path_4161" class="st3" d="M374.2,170.4c0.5,0.4,0.9,0.8,1.4,1.2C375.2,171.2,374.7,170.8,374.2,170.4"/>
			<path id="Path_4162" class="st3" d="M370.5,166.8l0.1,0.1l0,0C370.6,166.9,370.5,166.9,370.5,166.8"/>
			<path id="Path_4163" class="st3" d="M378.5,173.8c0.3,0.2,0.6,0.4,0.9,0.6C379.1,174.2,378.8,174,378.5,173.8"/>
			<path id="Path_4164" class="st3" d="M373.4,169.7c0.1,0.1,0.3,0.3,0.5,0.4c-0.7-0.6-1.3-1.2-2-1.8
				C372.4,168.8,372.9,169.2,373.4,169.7"/>
			<path id="Path_4165" class="st3" d="M378,173.4L378,173.4c-0.8-0.6-1.6-1.2-2.3-1.8c0.5,0.4,1.1,0.8,1.6,1.2
				C377.5,173.1,377.7,173.2,378,173.4"/>
			<path id="Path_4166" class="st3" d="M369.9,166.2c0.2,0.2,0.4,0.4,0.6,0.6c-0.8-0.8-1.5-1.7-2.2-2.5
				C368.8,165,369.4,165.6,369.9,166.2"/>
			<path id="Path_4167" class="st3" d="M366.4,161.9c0.4,0.6,0.9,1.1,1.3,1.7c-0.1-0.1-0.1-0.1-0.2-0.2c-0.2-0.3-0.5-0.6-0.8-1
				C366.6,162.2,366.5,162,366.4,161.9"/>
			<path id="Path_4168" class="st3" d="M381.1,175.5c0.6,0.4,1.3,0.7,1.9,1.1c-0.1-0.1-0.2-0.1-0.3-0.2
				C382.1,176.1,381.6,175.8,381.1,175.5"/>
			<path id="Path_4169" class="st3" d="M386.9,178.6c0.1,0.1,0.3,0.1,0.4,0.2c-0.1,0-0.1-0.1-0.2-0.1S386.9,178.6,386.9,178.6"/>
			<path id="Path_4170" class="st3" d="M389.1,179.5c-0.6-0.2-1.2-0.5-1.8-0.8C387.9,179,388.5,179.3,389.1,179.5"/>
			<path id="Path_4171" class="st3" d="M383.7,177c0.3,0.1,0.5,0.3,0.8,0.4c-0.5-0.3-1-0.5-1.6-0.8
				C383.2,176.7,383.5,176.9,383.7,177"/>
			<path id="Path_4172" class="st3" d="M391.3,180.3c-0.8-0.3-1.5-0.5-2.2-0.8C389.8,179.8,390.5,180.1,391.3,180.3"/>
			<path id="Path_4173" class="st3" d="M386,178.1c0.3,0.1,0.6,0.3,0.9,0.4c-0.6-0.3-1.2-0.6-1.8-0.9
				C385.3,177.8,385.6,178,386,178.1"/>
			<path id="Path_4174" class="st3" d="M396,181.7c0.3,0.1,0.6,0.1,0.9,0.2c-0.1,0-0.2,0-0.2,0C396.4,181.8,396.2,181.7,396,181.7"
				/>
			<path id="Path_4175" class="st3" d="M398.8,182.3c0.1,0,0.3,0,0.4,0.1c-0.1,0-0.1,0-0.2,0S398.9,182.3,398.8,182.3"/>
			<path id="Path_4176" class="st3" d="M396,181.7l-0.3-0.1c-0.3-0.1-0.7-0.2-1-0.3C395.1,181.5,395.5,181.6,396,181.7"/>
			<path id="Path_4177" class="st3" d="M396.9,181.9c0.7,0.1,1.3,0.3,2,0.4C398.2,182.2,397.5,182,396.9,181.9"/>
			<path id="Path_4178" class="st3" d="M417.3,182.3L417.3,182.3L417.3,182.3L417.3,182.3"/>
			<path id="Path_4179" class="st3" d="M422.3,181.2c-1.6,0.5-3.3,0.8-4.9,1.1c0.4-0.1,0.8-0.1,1.3-0.2s0.8-0.2,1.3-0.3
				C420.7,181.6,421.5,181.4,422.3,181.2"/>
			<path id="Path_4180" class="st3" d="M497.1,163.3c-0.4-0.6-0.8-1.2-1.2-1.9c-0.1-0.2-0.3-0.4-0.4-0.6c-0.6-1-1.2-2.1-1.8-3.2
				c-0.2-0.4-0.4-0.8-0.6-1.2c-0.4-0.8-0.8-1.7-1.2-2.6c-0.1-0.4-0.3-0.7-0.4-1.1c-0.4-1-0.7-1.9-1.1-2.9c-0.1-0.4-0.3-0.9-0.4-1.3
				c-0.1-0.4-0.3-0.9-0.4-1.4l-0.4-1.6c-0.1-0.4-0.2-0.8-0.3-1.2c-0.1-0.5-0.2-0.9-0.3-1.4c0-0.1,0-0.1,0-0.1
				c-0.1-0.4-0.2-0.9-0.2-1.3c-0.1-0.5-0.2-0.9-0.2-1.4c0,0,0-0.1,0-0.1c-0.1-0.4-0.1-0.9-0.2-1.4c-0.1-0.5-0.1-1-0.2-1.4
				c-0.1-0.6-0.1-1.1-0.1-1.6c0-0.3,0-0.7-0.1-1c0-0.3,0-0.6,0-0.9s0-0.6,0-0.9c0-0.5,0-1,0-1.4s0-1,0-1.4c0-0.3,0-0.6,0-0.9
				c0-0.3,0-0.6,0-0.9c0-0.3,0-0.7,0.1-1c0-0.6,0.1-1.1,0.1-1.7c0-0.5,0.1-1,0.2-1.4c0.1-0.4,0.1-0.9,0.2-1.3c0-0.1,0-0.1,0-0.1
				c0.1-0.5,0.1-0.9,0.2-1.4c0.1-0.4,0.2-0.8,0.2-1.3c0,0,0-0.1,0-0.1c0.1-0.5,0.2-0.9,0.3-1.4c0.1-0.4,0.2-0.8,0.3-1.2l0.4-1.6
				c0.1-0.5,0.3-0.9,0.4-1.4c0.1-0.4,0.3-0.9,0.4-1.3c0.3-1,0.7-2,1.1-2.9c0.1-0.4,0.3-0.7,0.4-1.1c0.4-0.9,0.8-1.7,1.2-2.6
				c0.2-0.4,0.4-0.8,0.6-1.2c0.5-1.1,1.1-2.2,1.8-3.2c0.1-0.2,0.3-0.4,0.4-0.7c0.4-0.6,0.8-1.2,1.2-1.8c0.2-0.3,0.4-0.6,0.6-0.9
				s0.4-0.6,0.6-0.9C479.7,48,424.3,22.7,374.5,41.3c-26.1,9.8-46.7,30.4-56.5,56.5c0.5,0.7,1,1.3,1.4,2c0.4,0.5,0.7,1.1,1,1.6
				c0,0,0.1,0.1,0.1,0.1c0.4,0.6,0.7,1.2,1,1.8c0.4,0.6,0.7,1.2,1,1.9c0,0,0,0,0,0.1c0.3,0.6,0.6,1.2,0.9,1.8
				c0.1,0.1,0.1,0.2,0.2,0.4c0.2,0.5,0.5,1.1,0.7,1.6c0.1,0.1,0.1,0.3,0.2,0.4c0.3,0.6,0.5,1.2,0.7,1.9s0.5,1.3,0.7,1.9
				c0.1,0.3,0.2,0.7,0.3,1.1c0.1,0.4,0.3,0.8,0.4,1.3c0.3,1,0.5,1.9,0.8,2.9c0.1,0.4,0.2,0.8,0.2,1.2c0,0.1,0,0.2,0.1,0.3
				c0.1,0.4,0.2,0.8,0.2,1.3c0.2,1,0.3,1.9,0.4,2.9c0.1,0.5,0.1,0.9,0.2,1.4c0.1,0.6,0.1,1.1,0.1,1.7c0,0.3,0,0.7,0.1,1
				c0,0.3,0,0.6,0,0.9s0,0.6,0,0.9c0,0.5,0,1,0,1.4s0,1,0,1.4c0,0.3,0,0.6,0,0.9c0,0.3,0,0.6,0,0.9c0,0.3,0,0.7-0.1,1
				c0,0.6-0.1,1.1-0.1,1.6c0,0.5-0.1,1-0.2,1.4c-0.1,0.4-0.1,0.9-0.2,1.4c0,0.1,0,0.1,0,0.1c-0.1,0.5-0.1,0.9-0.2,1.4
				c-0.1,0.4-0.2,0.8-0.2,1.3c0,0,0,0.1,0,0.1c-0.1,0.5-0.2,0.9-0.3,1.4c-0.1,0.4-0.2,0.8-0.3,1.2l-0.4,1.6
				c-0.1,0.4-0.3,0.9-0.4,1.4c-0.1,0.4-0.2,0.8-0.4,1.2c-0.2,0.7-0.5,1.5-0.8,2.2c-0.1,0.4-0.3,0.7-0.4,1.1l-0.3,0.8
				c-0.2,0.5-0.4,1-0.6,1.4c-0.1,0.2-0.2,0.4-0.3,0.6c-0.2,0.6-0.5,1.1-0.8,1.6l0,0.1c-0.3,0.6-0.7,1.3-1,1.9
				c-0.3,0.6-0.7,1.2-1,1.8c-0.1,0.1-0.1,0.2-0.2,0.3c-0.3,0.6-0.7,1.1-1,1.6l0,0.1c-0.3,0.5-0.7,1-1,1.5c-0.1,0.1-0.2,0.2-0.2,0.3
				c18.6,49.8,74,75.1,123.8,56.5c26.1-9.8,46.7-30.4,56.5-56.5c-0.2-0.3-0.4-0.6-0.6-0.9S497.3,163.6,497.1,163.3 M360.6,151.7
				c0-0.1-0.1-0.2-0.1-0.3c0.1,0.2,0.1,0.3,0.2,0.5C360.7,151.9,360.6,151.8,360.6,151.7"/>
			<path id="Path_4181" class="st3" d="M427,179.6c1-0.4,1.9-0.8,2.8-1.2c-0.2,0.1-0.4,0.2-0.5,0.2C428.6,179,427.8,179.3,427,179.6
				"/>
			<path id="Path_4182" class="st3" d="M432.4,177.1c0.4-0.2,0.9-0.5,1.3-0.7c-0.4,0.2-0.7,0.4-1.1,0.6
				C432.6,177,432.5,177.1,432.4,177.1"/>
			<path id="Path_4183" class="st3" d="M431.6,177.6c0.3-0.1,0.6-0.3,0.9-0.4c-0.5,0.3-1,0.5-1.5,0.8
				C431.1,177.8,431.3,177.7,431.6,177.6"/>
			<path id="Path_4184" class="st3" d="M429.9,178.4c0.3-0.1,0.6-0.3,1-0.5l-0.4,0.2C430.3,178.2,430.1,178.3,429.9,178.4"/>
		</g>
	</g>
</g>
<text transform="matrix(1 0 0 1 38.947 134.213)" class="st3 st4 st5">11,000+</text>
<text transform="matrix(1 0 0 1 28.702 154.286)" class="st3 st6 st7">N</text>
<text transform="matrix(1 0 0 1 41.257 154.286)" class="st3 st6 st7">e</text>
<text transform="matrix(1 0 0 1 50.4454 154.286)" class="st3 st6 st7">w</text>
<text transform="matrix(1 0 0 1 63.9271 154.286)" class="st3 st6 st7">sle</text>
<text transform="matrix(1 0 0 1 84.9602 154.286)" class="st3 st6 st7">t</text>
<text transform="matrix(1 0 0 1 91.0137 154.286)" class="st3 st6 st7">t</text>
<text transform="matrix(1 0 0 1 97.0055 154.286)" class="st3 st6 st7">er R</text>
<text transform="matrix(1 0 0 1 127.7364 154.286)" class="st3 st6 st7">e</text>
<text transform="matrix(1 0 0 1 136.8476 154.286)" class="st3 st6 st7">a</text>
<text transform="matrix(1 0 0 1 145.9898 154.286)" class="st3 st6 st7">c</text>
<text transform="matrix(1 0 0 1 154.5759 154.286)" class="st3 st6 st7">h</text>
<text transform="matrix(1 0 0 1 517.023 124.461)" class="st3 st4 st5">700+</text>
<text transform="matrix(1 0 0 1 503.314 145.506)" class="st3 st6 st7">2</text>
<text transform="matrix(1 0 0 1 512.0392 145.506)" class="st3 st6 st7">0</text>
<text transform="matrix(1 0 0 1 522.2468 145.506)" class="st3 st6 st7">23 </text>
<text transform="matrix(1 0 0 1 543.8358 145.506)" class="st3 st6 st7">A</text>
<text transform="matrix(1 0 0 1 554.8466 145.506)" class="st3 st6 st7">t</text>
<text transform="matrix(1 0 0 1 560.9155 145.506)" class="st3 st6 st7">t</text>
<text transform="matrix(1 0 0 1 566.9073 145.506)" class="st3 st6 st7">e</text>
<text transform="matrix(1 0 0 1 576.2347 145.506)" class="st3 st6 st7">n</text>
<text transform="matrix(1 0 0 1 586.7048 145.506)" class="st3 st6 st7">dess</text>
<text transform="matrix(1 0 0 1 539.591 164.039)" class="st3 st6 st7">T</text>
<text transform="matrix(1 0 0 1 548.0227 164.039)" class="st3 st6 st7">a</text>
<text transform="matrix(1 0 0 1 557.134 164.039)" class="st3 st6 st7">r</text>
<text transform="matrix(1 0 0 1 563.1412 164.039)" class="st3 st6 st7">get</text>
<text transform="matrix(1 0 0 1 194.589 134.328)" class="st3 st4 st5">2,000+</text>
<text transform="matrix(1 0 0 1 217.997 154.172)" class="st3 st6 st7">A</text>
<text transform="matrix(1 0 0 1 228.9923 154.172)" class="st3 st6 st7">t</text>
<text transform="matrix(1 0 0 1 235.0613 154.172)" class="st3 st6 st7">t</text>
<text transform="matrix(1 0 0 1 241.053 154.172)" class="st3 st6 st7">e</text>
<text transform="matrix(1 0 0 1 250.3804 154.172)" class="st3 st6 st7">n</text>
<text transform="matrix(1 0 0 1 260.866 154.172)" class="st3 st6 st7">dess</text>
<text transform="matrix(1 0 0 1 666.182 134.328)" class="st3 st4 st5">3000+</text>
<text transform="matrix(1 0 0 1 658.174 154.172)" class="st3 st6 st7">T</text>
<text transform="matrix(1 0 0 1 666.5285 154.172)" class="st3 st6 st7">wi</text>
<text transform="matrix(1 0 0 1 684.257 154.172)" class="st3 st6 st7">t</text>
<text transform="matrix(1 0 0 1 690.3259 154.172)" class="st3 st6 st7">t</text>
<text transform="matrix(1 0 0 1 696.3177 154.172)" class="st3 st6 st7">er </text>
<text transform="matrix(1 0 0 1 715.8835 154.172)" class="st3 st6 st7">F</text>
<text transform="matrix(1 0 0 1 725.3963 154.172)" class="st3 st6 st7">oll</text>
<text transform="matrix(1 0 0 1 743.3873 154.172)" class="st3 st6 st7">o</text>
<text transform="matrix(1 0 0 1 752.8538 154.172)" class="st3 st6 st7">w</text>
<text transform="matrix(1 0 0 1 766.1965 154.172)" class="st3 st6 st7">e</text>
<text transform="matrix(1 0 0 1 775.5239 154.172)" class="st3 st6 st7">r</text>
<text transform="matrix(1 0 0 1 781.6546 154.172)" class="st3 st6 st7">s</text>
<text transform="matrix(1 0 0 1 374.015 134.463)" class="st8 st4 st9">40+</text>
<text transform="matrix(1 0 0 1 390.982 155.233)" class="st8 st6 st10">T</text>
<text transform="matrix(1 0 0 1 399.8074 155.233)" class="st8 st6 st10">al</text>
<text transform="matrix(1 0 0 1 413.6921 155.233)" class="st8 st6 st10">k</text>
<text transform="matrix(1 0 0 1 423.1642 155.233)" class="st8 st6 st10">s</text>
<g id="Group_1183">
	<g>
		<defs>
			<rect id="SVGID_00000089536586489800432260000009895426152142223258_" y="0" width="816.4" height="262.9"/>
		</defs>
		<clipPath id="SVGID_00000079474146715576276650000017119325195089425564_">
			<use xlink:href="#SVGID_00000089536586489800432260000009895426152142223258_"  style="overflow:visible;"/>
		</clipPath>
		<g id="Group_1182" style="clip-path:url(#SVGID_00000079474146715576276650000017119325195089425564_);">
			<path id="Path_4185" class="st8" d="M322.1,80.2c9.2-0.2,16.7,7.2,16.9,16.3s-7.2,16.7-16.3,16.9c-9.2,0.2-16.7-7.2-16.9-16.3
				c0-0.1,0-0.2,0-0.3C305.7,87.7,313,80.2,322.1,80.2"/>
			<path id="Path_4186" class="st8" d="M171,157.4c5.5-0.1,10,4.3,10,9.7c0.1,5.5-4.3,10-9.7,10c-5.5,0.1-10-4.3-10-9.7
				c0-0.1,0-0.1,0-0.2C161.3,161.9,165.6,157.5,171,157.4"/>
			<path id="Path_4187" class="st8" d="M646.2,89.1c5.5-0.1,10,4.3,10,9.7c0.1,5.5-4.3,10-9.7,10c-5.5,0.1-10-4.3-10-9.7
				c0-0.1,0-0.1,0-0.2C636.5,93.6,640.8,89.1,646.2,89.1"/>
			<path id="Path_4188" class="st8" d="M495.2,152.9c9.2-0.2,16.7,7.2,16.9,16.3s-7.2,16.7-16.3,16.9s-16.7-7.2-16.9-16.3
				c0-0.1,0-0.2,0-0.3C478.8,160.4,486.1,153,495.2,152.9"/>
		</g>
	</g>
</g>
</svg>
