<svg id="Group_1184" data-name="Group 1184" xmlns="http://www.w3.org/2000/svg" xmlns:xlink="http://www.w3.org/1999/xlink" width="816.389" height="262.857" viewBox="0 0 816.389 262.857">
  <defs>
    <clipPath id="clip-path">
      <rect id="Rectangle_944" data-name="Rectangle 944" width="816.389" height="262.857" fill="none"/>
    </clipPath>
  </defs>
  <g id="Group_1181" data-name="Group 1181">
    <g id="Group_1180" data-name="Group 1180" clip-path="url(#clip-path)">
      <path id="Path_4132" data-name="Path 4132" d="M536.08,116.646H538.8A131.437,131.437,0,0,0,408.2,0H408.2a131.447,131.447,0,0,0-130.6,116.646h2.718v29.559h-2.718a131.438,131.438,0,0,0,261.207,0H536.08Z" fill="#ff6e4d"/>
      <path id="Path_4133" data-name="Path 4133" d="M458.167,181.4a70.482,70.482,0,0,1-49.967,20.7H408.2a70.661,70.661,0,1,1,49.972-20.7" fill="#ff6e4d"/>
      <path id="Path_4134" data-name="Path 4134" d="M225.41,96.783a115.489,115.489,0,0,0-110.05-80.71h-.01a115.26,115.26,0,1,0,110.06,80.71" fill="#ff6e4d"/>
      <path id="Path_4135" data-name="Path 4135" d="M647.429,100.233a107.059,107.059,0,0,0-30.33-47.92,115.231,115.231,0,0,0,0,158.22,106.868,106.868,0,0,0,30.32-47.91,62.092,62.092,0,0,1,.01-62.39" fill="#ff6e4d"/>
      <path id="Path_4136" data-name="Path 4136" d="M816.389,131.423a115.338,115.338,0,0,1-199.29,79.11,106.868,106.868,0,0,0,30.32-47.91,62.092,62.092,0,0,1,.01-62.39,107.059,107.059,0,0,0-30.33-47.92,114.978,114.978,0,0,1,83.93-36.24h.01a115.358,115.358,0,0,1,115.35,115.35" fill="#ff6e4d"/>
      <path id="Path_4137" data-name="Path 4137" d="M378.372,131.425a107.03,107.03,0,0,1-209.4,31.2,62.092,62.092,0,0,0-.01-62.39,107.016,107.016,0,0,1,209.41,31.19" fill="#00e2c3"/>
      <path id="Path_4138" data-name="Path 4138" d="M328.89,131.423c0,.48-.01.96-.02,1.44q0,.45-.03.9c-.01.3-.02.59-.04.88-.02.34-.04.67-.07,1.01-.03.55-.08,1.1-.14,1.65-.05.49-.1.97-.16,1.45-.06.45-.12.9-.19,1.35-.01.05-.01.09-.02.13-.07.46-.15.92-.23,1.38-.07.42-.16.84-.24,1.27-.01.04-.02.09-.03.14-.09.46-.2.93-.3,1.39-.1.4-.19.8-.29,1.2l-.42,1.56c-.13.45-.27.91-.41,1.36-.12.39-.24.77-.37,1.16-.25.74-.51,1.48-.79,2.2-.14.37-.28.74-.44,1.11l-.33.81c-.21.49-.42.98-.64,1.45-.1.22-.2.44-.3.65-.25.55-.52,1.1-.8,1.64l-.03.06c-.33.63-.67,1.27-1.02,1.89-.33.59-.67,1.17-1.02,1.75-.06.11-.13.21-.19.31-.34.55-.69,1.1-1.05,1.64l-.03.06c-.34.49-.67.98-1.01,1.46-.08.11-.16.22-.23.32a1.839,1.839,0,0,1-.17.22c-.35.5-.73.99-1.11,1.48-.05.07-.1.13-.15.2-.41.52-.82,1.02-1.24,1.52-.63.75-1.27,1.48-1.94,2.18-.45.49-.92.98-1.4,1.46a57.354,57.354,0,0,1-40.69,16.86c-.59,0-1.17-.01-1.75-.03-.51-.01-1.02-.03-1.52-.06-.36-.02-.71-.04-1.07-.07-.04,0-.08-.01-.13-.01-.47-.04-.94-.08-1.41-.13-.43-.04-.86-.09-1.28-.14-1.2-.15-2.38-.34-3.56-.56-.42-.08-.83-.16-1.25-.25-.51-.11-1.02-.22-1.53-.34l-.33-.09c-.4-.09-.8-.2-1.2-.31a2.805,2.805,0,0,1-.31-.08c-.45-.12-.9-.25-1.34-.39-.59-.17-1.18-.36-1.76-.56-.53-.18-1.05-.36-1.57-.56s-1.04-.39-1.55-.6c-.48-.19-.95-.39-1.43-.6-.07-.03-.15-.06-.22-.09-.29-.13-.57-.26-.86-.39s-.59-.28-.88-.42a57.188,57.188,0,0,1-6.86-3.9c-.31-.22-.62-.43-.93-.64-.19-.13-.38-.26-.57-.4-.76-.54-1.5-1.09-2.22-1.66-.98-.77-1.93-1.57-2.86-2.4-.34-.31-.68-.62-1.01-.93l-.01-.01c-.4-.38-.79-.75-1.17-1.14-.33-.33-.66-.66-.98-1-.53-.55-1.05-1.11-1.56-1.69-.23-.26-.45-.52-.67-.78-.42-.48-.82-.97-1.22-1.47l-.93-1.2a115.851,115.851,0,0,0,0-69.28l.93-1.2c.4-.5.8-.99,1.22-1.47.22-.26.44-.52.67-.78.51-.58,1.03-1.14,1.56-1.69.32-.34.65-.67.98-1,.31-.32.62-.62.94-.91.31-.31.63-.6.95-.89.25-.24.51-.47.77-.69.3-.26.6-.52.91-.77.85-.73,1.72-1.42,2.6-2.07q.645-.5,1.32-.96c.54-.39,1.1-.76,1.65-1.12q.5-.33.99-.63c.3-.19.59-.37.89-.54s.59-.36.89-.53c.41-.24.82-.47,1.24-.7.45-.24.9-.48,1.36-.71s.92-.46,1.38-.68c.12-.06.23-.11.35-.16.37-.18.75-.35,1.13-.52.4-.18.8-.35,1.21-.51q.4-.18.81-.33c.47-.19.93-.37,1.4-.54.44-.16.89-.32,1.35-.47.58-.2,1.17-.39,1.76-.56.44-.14.89-.27,1.34-.39a2.8,2.8,0,0,1,.31-.08c.4-.12.8-.22,1.2-.31.11-.04.22-.06.33-.09.51-.12,1.02-.24,1.53-.34.42-.09.83-.18,1.25-.25,1.18-.23,2.36-.41,3.56-.56.42-.05.85-.1,1.28-.14.47-.05.94-.09,1.41-.13.05,0,.09-.01.13-.01.36-.03.71-.05,1.07-.07.5-.03,1.01-.05,1.52-.06.58-.02,1.16-.03,1.75-.03.62,0,1.23.01,1.85.03.55.02,1.09.04,1.64.08a2.825,2.825,0,0,1,.29.02c.45.02.89.05,1.33.1a53.3,53.3,0,0,1,5.55.76q.75.135,1.5.3a1.163,1.163,0,0,1,.18.04c.5.11,1,.22,1.49.34q2.73.675,5.36,1.61c.43.15.86.3,1.28.47.37.14.74.28,1.1.43.24.1.48.19.72.29.96.41,1.91.84,2.84,1.29.48.23.95.47,1.41.71a58.191,58.191,0,0,1,8.04,5.07c.28.21.56.43.84.64.09.08.19.16.29.24.3.23.6.47.89.72.37.3.74.61,1.1.92.68.6,1.35,1.2,2,1.83.34.31.66.63.99.96s.65.65.96.99.64.67.94,1.01c.62.68,1.22,1.37,1.81,2.09.24.28.47.57.7.86.55.69,1.08,1.39,1.6,2.11.48.67.95,1.35,1.4,2.04.35.53.69,1.06,1.02,1.61.03.04.06.09.09.14.35.58.69,1.16,1.02,1.75q.525.93,1.02,1.89a.169.169,0,0,0,.02.05c.3.58.59,1.17.86,1.76.06.12.12.25.18.38.24.53.48,1.07.71,1.61.06.14.12.29.18.44.26.62.51,1.25.74,1.88s.46,1.27.67,1.91c.12.35.23.7.34,1.05.14.42.26.85.39,1.28.27.96.52,1.93.75,2.92.09.39.17.79.25,1.18.02.1.04.19.06.28q.135.63.24,1.26c.17.96.32,1.91.44,2.88.06.47.11.95.16,1.43q.09.84.15,1.68c.02.32.04.65.06.97.02.29.03.59.04.89s.03.6.03.9c.01.48.02.96.02,1.44" fill="#00e2c3"/>
      <path id="Path_4139" data-name="Path 4139" d="M638.438,129.975a61.743,61.743,0,0,0,8.4,31.19,106.98,106.98,0,0,1-178.82,43.69h-.01v-.01a107.293,107.293,0,0,1-15.58-20.23,105.6,105.6,0,0,1-8.49-17.82v-.01a107.479,107.479,0,0,1,0-73.62v-.01A107.215,107.215,0,0,1,468,55.1h.01v-.01a107.052,107.052,0,0,1,178.84,43.69,61.715,61.715,0,0,0-8.41,31.2" fill="#00e2c3"/>
      <path id="Path_4140" data-name="Path 4140" d="M360.5,151.465c.03.09.07.18.1.26a2.556,2.556,0,0,0,.11.24c-.07-.17-.14-.33-.21-.5" fill="#000ceb"/>
      <path id="Path_4141" data-name="Path 4141" d="M360.5,151.465c.03.09.07.18.1.26a2.556,2.556,0,0,0,.11.24c-.07-.17-.14-.33-.21-.5" fill="#000ceb"/>
      <path id="Path_4142" data-name="Path 4142" d="M356.551,134.232c-.021-.388-.025-.781-.037-1.171.012.39.016.783.037,1.171" fill="#000ceb"/>
      <path id="Path_4143" data-name="Path 4143" d="M356.685,135.966c-.051-.577-.1-1.153-.134-1.735.032.582.083,1.158.134,1.735" fill="#000ceb"/>
      <path id="Path_4144" data-name="Path 4144" d="M356.551,128.613c-.022.412-.026.828-.039,1.243.012-.415.017-.832.039-1.243" fill="#000ceb"/>
      <path id="Path_4145" data-name="Path 4145" d="M356.679,126.955c-.048.551-.1,1.1-.128,1.658.031-.557.08-1.106.128-1.658" fill="#000ceb"/>
      <path id="Path_4146" data-name="Path 4146" d="M357.792,143.085q-.12-.48-.21-.96a2,2,0,0,1-.05-.26c.08.41.17.81.26,1.22" fill="#000ceb"/>
      <path id="Path_4147" data-name="Path 4147" d="M357.512,141.775c.005.032.013.062.019.094-.075-.363-.144-.727-.21-1.093.058.333.116.666.191,1" fill="#000ceb"/>
      <path id="Path_4148" data-name="Path 4148" d="M357.1,123.416c-.063.412-.13.823-.183,1.238.05-.37.1-.74.16-1.11.007-.042.017-.085.023-.128" fill="#000ceb"/>
      <path id="Path_4149" data-name="Path 4149" d="M358.432,117.265c-.23.78-.43,1.58-.61,2.38.09-.39.18-.77.28-1.15q.15-.615.33-1.23" fill="#000ceb"/>
      <path id="Path_4150" data-name="Path 4150" d="M358.812,146.865c.141.452.3.9.449,1.345-.022-.065-.048-.129-.069-.2-.13-.38-.25-.76-.38-1.15" fill="#000ceb"/>
      <path id="Path_4151" data-name="Path 4151" d="M365.817,161.073c.186.264.365.532.556.791-.12-.16-.24-.33-.36-.5-.068-.1-.129-.195-.2-.291" fill="#000ceb"/>
      <path id="Path_4152" data-name="Path 4152" d="M360.712,151.965a2.556,2.556,0,0,1-.11-.24c-.03-.08-.07-.17-.1-.26.07.17.14.33.21.5" fill="#000ceb"/>
      <path id="Path_4153" data-name="Path 4153" d="M367.673,163.567c.16.2.319.4.485.6q-.244-.3-.485-.6" fill="#000ceb"/>
      <path id="Path_4154" data-name="Path 4154" d="M378.009,173.421c.174.125.346.254.522.377l-.049-.034c-.158-.111-.315-.224-.473-.343" fill="#000ceb"/>
      <path id="Path_4155" data-name="Path 4155" d="M375.644,171.618l.006,0-.006,0" fill="#000ceb"/>
      <path id="Path_4156" data-name="Path 4156" d="M373.874,170.116c.12.107.24.214.362.319-.048-.041-.1-.079-.144-.121-.075-.065-.145-.133-.218-.2" fill="#000ceb"/>
      <path id="Path_4157" data-name="Path 4157" d="M379.4,174.391c.546.365,1.093.729,1.654,1.074-.53-.33-1.05-.66-1.56-1.01-.032-.02-.063-.043-.094-.064" fill="#000ceb"/>
      <path id="Path_4158" data-name="Path 4158" d="M368.158,164.169c.041.051.085.1.127.151-.026-.032-.056-.063-.082-.1s-.03-.037-.045-.056" fill="#000ceb"/>
      <path id="Path_4159" data-name="Path 4159" d="M370.621,166.964c.4.431.815.844,1.228,1.257q-.625-.618-1.228-1.257" fill="#000ceb"/>
      <path id="Path_4160" data-name="Path 4160" d="M371.849,168.221l.061.059-.038-.035-.023-.024" fill="#000ceb"/>
      <path id="Path_4161" data-name="Path 4161" d="M374.236,170.436c.463.4.931.8,1.408,1.182q-.716-.579-1.408-1.182" fill="#000ceb"/>
      <path id="Path_4162" data-name="Path 4162" d="M370.5,166.833l.123.132-.029-.03c-.032-.033-.062-.068-.094-.1" fill="#000ceb"/>
      <path id="Path_4163" data-name="Path 4163" d="M378.531,173.8c.284.2.575.4.867.592q-.437-.291-.867-.592" fill="#000ceb"/>
      <path id="Path_4164" data-name="Path 4164" d="M373.422,169.705c.148.142.3.276.452.412q-1.006-.894-1.965-1.837c.489.487,1,.957,1.513,1.425" fill="#000ceb"/>
      <path id="Path_4165" data-name="Path 4165" d="M377.972,173.4l.037.027q-1.206-.867-2.359-1.8.787.636,1.6,1.242c.24.19.48.36.72.53" fill="#000ceb"/>
      <path id="Path_4166" data-name="Path 4166" d="M369.912,166.2c.19.215.388.429.586.638q-1.146-1.221-2.213-2.512c.525.636,1.066,1.265,1.627,1.874" fill="#000ceb"/>
      <path id="Path_4167" data-name="Path 4167" d="M366.372,161.865c.42.578.857,1.142,1.3,1.7-.056-.071-.114-.141-.17-.212-.25-.33-.5-.65-.75-.99-.13-.16-.25-.33-.38-.5" fill="#000ceb"/>
      <path id="Path_4168" data-name="Path 4168" d="M381.052,175.465c.625.387,1.266.749,1.908,1.11-.1-.058-.206-.111-.308-.17-.54-.3-1.07-.62-1.6-.94" fill="#000ceb"/>
      <path id="Path_4169" data-name="Path 4169" d="M386.882,178.552c.14.065.282.125.424.187-.073-.033-.15-.061-.224-.094s-.134-.063-.2-.093" fill="#000ceb"/>
      <path id="Path_4170" data-name="Path 4170" d="M389.081,179.492c-.6-.237-1.188-.493-1.775-.753.588.261,1.178.514,1.775.753" fill="#000ceb"/>
      <path id="Path_4171" data-name="Path 4171" d="M383.742,177.005c.252.14.512.269.77.4-.521-.269-1.04-.542-1.552-.829.259.146.517.294.782.43" fill="#000ceb"/>
      <path id="Path_4172" data-name="Path 4172" d="M391.3,180.325q-1.125-.392-2.221-.833c.734.291,1.471.576,2.221.833" fill="#000ceb"/>
      <path id="Path_4173" data-name="Path 4173" d="M385.952,178.125c.312.148.619.291.929.428q-.933-.423-1.845-.882.457.231.916.454" fill="#000ceb"/>
      <path id="Path_4174" data-name="Path 4174" d="M395.961,181.689c.3.072.593.136.89.2-.076-.017-.152-.03-.229-.047-.22-.049-.441-.1-.661-.156" fill="#000ceb"/>
      <path id="Path_4175" data-name="Path 4175" d="M398.847,182.295c.126.023.252.047.379.069-.061-.011-.123-.018-.184-.03s-.13-.027-.2-.039" fill="#000ceb"/>
      <path id="Path_4176" data-name="Path 4176" d="M395.962,181.685l-.27-.06c-.33-.08-.66-.16-.98-.26.41.12.83.22,1.25.32" fill="#000ceb"/>
      <path id="Path_4177" data-name="Path 4177" d="M396.852,181.891c.667.147,1.329.285,2,.4q-1-.183-2-.4" fill="#000ceb"/>
      <path id="Path_4178" data-name="Path 4178" d="M417.34,182.337l.029-.005-.017,0-.012,0" fill="#000ceb"/>
      <path id="Path_4179" data-name="Path 4179" d="M422.312,181.2a49.033,49.033,0,0,1-4.943,1.137c.424-.07.839-.148,1.253-.237s.84-.18,1.26-.28c.82-.19,1.63-.39,2.43-.62" fill="#000ceb"/>
      <path id="Path_4180" data-name="Path 4180" d="M497.1,163.255c-.41-.61-.8-1.22-1.18-1.85-.13-.21-.26-.43-.39-.65-.63-1.04-1.21-2.1-1.76-3.18-.21-.4-.41-.8-.6-1.21-.41-.84-.79-1.69-1.16-2.55-.15-.35-.3-.71-.44-1.07-.38-.96-.74-1.93-1.08-2.92-.14-.43-.28-.86-.41-1.29-.14-.45-.28-.9-.41-1.36l-.42-1.56c-.1-.4-.19-.8-.29-1.2-.1-.46-.21-.93-.3-1.39-.01-.05-.02-.1-.03-.14-.08-.43-.17-.85-.24-1.27-.08-.46-.16-.92-.23-1.38-.01-.04-.01-.09-.02-.13-.07-.45-.13-.9-.19-1.35-.06-.48-.11-.96-.16-1.45-.06-.55-.11-1.1-.14-1.65-.03-.34-.05-.67-.07-1.01-.02-.29-.03-.58-.04-.88s-.03-.6-.03-.9c-.01-.48-.02-.96-.02-1.44s.01-.96.02-1.44q0-.45.03-.9c.01-.3.02-.59.04-.88.02-.34.04-.67.07-1.01.03-.55.08-1.1.14-1.65.05-.49.1-.97.16-1.45.06-.45.12-.9.19-1.35.01-.05.01-.09.02-.13.07-.46.15-.92.23-1.38.07-.42.16-.84.24-1.27.01-.04.02-.09.03-.14.09-.46.2-.93.3-1.39.1-.4.19-.8.29-1.2l.42-1.56c.13-.46.27-.91.41-1.36.13-.43.27-.86.41-1.29.34-.99.7-1.96,1.08-2.92.14-.36.29-.72.44-1.07.37-.87.75-1.72,1.16-2.55.19-.41.39-.81.6-1.21.55-1.08,1.13-2.15,1.76-3.18.13-.22.26-.44.39-.65.38-.63.77-1.24,1.18-1.85.2-.31.41-.61.62-.91s.41-.6.63-.89a96.238,96.238,0,0,0-180.3.01c.48.67.95,1.35,1.4,2.04.35.53.69,1.06,1.02,1.61.03.04.06.09.09.14.35.58.69,1.16,1.02,1.75q.525.93,1.02,1.89a.169.169,0,0,0,.02.05c.3.58.59,1.17.86,1.76.06.12.12.25.18.38.24.53.48,1.07.71,1.61.06.14.12.29.18.44.26.62.51,1.25.74,1.88s.46,1.27.67,1.91c.12.35.23.7.34,1.05.14.42.26.85.39,1.28.27.96.52,1.93.75,2.92.09.39.17.79.25,1.18.02.1.04.19.06.28q.135.63.24,1.26c.17.96.32,1.91.44,2.88.06.47.11.95.16,1.43q.09.84.15,1.68c.02.32.04.65.06.97.02.29.03.59.04.89s.03.6.03.9c.01.48.02.96.02,1.44s-.01.96-.02,1.44q0,.45-.03.9c-.01.3-.02.59-.04.88-.02.34-.04.67-.07,1.01-.03.55-.08,1.1-.14,1.65-.05.49-.1.97-.16,1.45-.06.45-.12.9-.19,1.35-.01.05-.01.09-.02.13-.07.46-.15.92-.23,1.38-.07.42-.16.84-.24,1.27-.01.04-.02.09-.03.14-.09.46-.2.93-.3,1.39-.1.4-.19.8-.29,1.2l-.42,1.56c-.13.45-.27.91-.41,1.36-.12.39-.24.77-.37,1.16-.25.74-.51,1.48-.79,2.2-.14.37-.28.74-.44,1.11l-.33.81c-.21.49-.42.98-.64,1.45-.1.22-.2.44-.3.65-.25.55-.52,1.1-.8,1.64l-.03.06c-.33.63-.67,1.27-1.02,1.89-.33.59-.67,1.17-1.02,1.75-.06.11-.13.21-.19.31-.34.55-.69,1.1-1.05,1.64l-.03.06c-.34.49-.67.98-1.01,1.46-.08.11-.16.22-.23.32a96.233,96.233,0,0,0,180.3.01c-.22-.29-.43-.59-.63-.89s-.42-.6-.62-.91m-136.5-11.53c-.03-.08-.07-.17-.1-.26.07.17.14.33.21.5a2.556,2.556,0,0,1-.11-.24" fill="#000ceb"/>
      <path id="Path_4181" data-name="Path 4181" d="M427.032,179.6c.96-.37,1.9-.77,2.83-1.2-.19.08-.37.16-.55.24q-1.125.51-2.28.96" fill="#000ceb"/>
      <path id="Path_4182" data-name="Path 4182" d="M432.418,177.126c.444-.237.888-.472,1.324-.721-.36.21-.72.41-1.09.6-.077.042-.157.079-.234.121" fill="#000ceb"/>
      <path id="Path_4183" data-name="Path 4183" d="M431.552,177.575c.291-.142.58-.295.866-.449-.509.272-1.025.532-1.546.786.227-.111.453-.221.68-.337" fill="#000ceb"/>
      <path id="Path_4184" data-name="Path 4184" d="M429.922,178.375c.321-.147.633-.309.95-.463l-.43.213c-.18.08-.35.17-.52.25" fill="#000ceb"/>
    </g>
  </g>
  <text id="_5000_" data-name="5000+" transform="translate(38.947 134.213)" fill="#000ceb" font-size="34.927" font-family="Montserrat-Black, Montserrat" font-weight="800"><tspan x="0" y="0">5000+</tspan></text>
  <text id="Newsletter_Reach" data-name="Newsletter Reach" transform="translate(28.702 154.286)" fill="#000ceb" font-size="15.443" font-family="Montserrat-Regular, Montserrat"><tspan x="0" y="0">N</tspan><tspan y="0" letter-spacing="-0.009em">e</tspan><tspan y="0" letter-spacing="-0.006em">w</tspan><tspan y="0">sle</tspan><tspan y="0" letter-spacing="-0.014em">t</tspan><tspan y="0" letter-spacing="-0.018em">t</tspan><tspan y="0">er R</tspan><tspan y="0" letter-spacing="-0.014em">e</tspan><tspan y="0" letter-spacing="0.002em">a</tspan><tspan y="0" letter-spacing="-0.007em">c</tspan><tspan y="0">h</tspan></text>
  <text id="_400_" data-name="400+" transform="translate(517.023 124.461)" fill="#000ceb" font-size="34.927" font-family="Montserrat-Black, Montserrat" font-weight="800"><tspan x="0" y="0">400+</tspan></text>
  <text id="_2022_Attendess_" data-name="2022 Attendess " transform="translate(503.314 145.506)" fill="#000ceb" font-size="15.443" font-family="Montserrat-Regular, Montserrat"><tspan x="0" y="0" letter-spacing="-0.003em">2</tspan><tspan y="0" letter-spacing="-0.001em">0</tspan><tspan y="0">22 </tspan><tspan y="0" letter-spacing="-0.004em">A</tspan><tspan y="0" letter-spacing="-0.013em">t</tspan><tspan y="0" letter-spacing="-0.018em">t</tspan><tspan y="0">e</tspan><tspan y="0" letter-spacing="0.001em">n</tspan><tspan y="0">dess </tspan></text>
  <text id="Target" transform="translate(539.591 164.039)" fill="#000ceb" font-size="15.443" font-family="Montserrat-Regular, Montserrat"><tspan x="0" y="0" letter-spacing="-0.028em">T</tspan><tspan y="0">a</tspan><tspan y="0" letter-spacing="-0.012em">r</tspan><tspan y="0">get</tspan></text>
  <text id="_1500" data-name="1500" transform="translate(214.589 134.328)" fill="#000ceb" font-size="34.927" font-family="Montserrat-Black, Montserrat" font-weight="800"><tspan x="0" y="0">1500</tspan></text>
  <text id="Attendess" transform="translate(217.997 154.172)" fill="#000ceb" font-size="15.443" font-family="Montserrat-Regular, Montserrat"><tspan x="0" y="0" letter-spacing="-0.005em">A</tspan><tspan y="0" letter-spacing="-0.013em">t</tspan><tspan y="0" letter-spacing="-0.018em">t</tspan><tspan y="0">e</tspan><tspan y="0" letter-spacing="0.002em">n</tspan><tspan y="0">dess</tspan></text>
  <text id="_2000_" data-name="2000+" transform="translate(666.182 134.328)" fill="#000ceb" font-size="34.927" font-family="Montserrat-Black, Montserrat" font-weight="800"><tspan x="0" y="0">2000+</tspan></text>
  <text id="Twitter_Followers" data-name="Twitter Followers" transform="translate(658.174 154.172)" fill="#000ceb" font-size="15.443" font-family="Montserrat-Regular, Montserrat"><tspan x="0" y="0" letter-spacing="-0.033em">T</tspan><tspan y="0">wi</tspan><tspan y="0" letter-spacing="-0.013em">t</tspan><tspan y="0" letter-spacing="-0.018em">t</tspan><tspan y="0">er </tspan><tspan y="0" letter-spacing="-0.017em">F</tspan><tspan y="0">oll</tspan><tspan y="0" letter-spacing="-0.014em">o</tspan><tspan y="0" letter-spacing="-0.015em">w</tspan><tspan y="0">e</tspan><tspan y="0" letter-spacing="-0.004em">r</tspan><tspan y="0">s</tspan></text>
  <text id="_40_" data-name="40+" transform="translate(374.015 134.463)" fill="#fff" font-size="36.556" font-family="Montserrat-Black, Montserrat" font-weight="800"><tspan x="0" y="0">40+</tspan></text>
  <text id="Talks" transform="translate(390.982 155.233)" fill="#fff" font-size="16.164" font-family="Montserrat-Regular, Montserrat"><tspan x="0" y="0" letter-spacing="-0.028em">T</tspan><tspan y="0">al</tspan><tspan y="0" letter-spacing="-0.015em">k</tspan><tspan y="0">s</tspan></text>
  <g id="Group_1183" data-name="Group 1183">
    <g id="Group_1182" data-name="Group 1182" clip-path="url(#clip-path)">
      <path id="Path_4185" data-name="Path 4185" d="M322.087,80.16a16.612,16.612,0,1,1-16.338,16.61,16.476,16.476,0,0,1,16.338-16.61" fill="#fff"/>
      <path id="Path_4186" data-name="Path 4186" d="M171.044,157.446a9.886,9.886,0,1,1-9.723,9.885,9.805,9.805,0,0,1,9.723-9.885" fill="#fff"/>
      <path id="Path_4187" data-name="Path 4187" d="M646.223,89.091a9.886,9.886,0,1,1-9.723,9.885,9.805,9.805,0,0,1,9.723-9.885" fill="#fff"/>
      <path id="Path_4188" data-name="Path 4188" d="M495.18,152.925a16.612,16.612,0,1,1-16.338,16.61,16.476,16.476,0,0,1,16.338-16.61" fill="#fff"/>
    </g>
  </g>
</svg>
