<?xml version="1.0" encoding="utf-8"?>
<!-- Generator: Adobe Illustrator 27.5.0, SVG Export Plug-In . SVG Version: 6.00 Build 0)  -->
<svg version="1.1" id="Group_1184" xmlns="http://www.w3.org/2000/svg" xmlns:xlink="http://www.w3.org/1999/xlink" x="0px" y="0px"
	 viewBox="0 0 816.4 262.9" style="enable-background:new 0 0 816.4 262.9;" xml:space="preserve">
<style type="text/css">
	.st0{clip-path:url(#SVGID_00000105399674549717055640000004269878466456489913_);}
	.st1{fill:#FF6E4D;}
	.st2{fill:#00E2C3;}
	.st3{fill:#000CEB;}
	.st4{enable-background:new    ;}
	.st5{font-family:'Montserrat-Regular';}
	.st6{font-size:15.443px;}
	.st7{fill:#FFFFFF;}
	.st8{clip-path:url(#SVGID_00000071559559177651297250000000109909250786980793_);}
</style>
<g id="Group_1181">
	<g>
		<g>
			<defs>
				<rect id="SVGID_1_" y="0" width="816.4" height="262.9"/>
			</defs>
			<clipPath id="SVGID_00000015331008813730317290000007437574846816108691_">
				<use xlink:href="#SVGID_1_"  style="overflow:visible;"/>
			</clipPath>
			<g id="Group_1180" style="clip-path:url(#SVGID_00000015331008813730317290000007437574846816108691_);">
				<g id="Path_4132">
					<path class="st1" d="M536.1,116.6h2.7C531.3,50.2,475.1,0,408.2,0l0,0c-66.9,0-123.1,50.2-130.6,116.6h2.7v29.6h-2.7
						c8.2,72.1,73.3,124,145.4,115.8c60.9-6.9,108.9-54.9,115.8-115.8h-2.7V116.6z"/>
				</g>
				<g id="Path_4133">
					<path class="st1" d="M458.2,181.4c-13.2,13.3-31.2,20.7-50,20.7l0,0c-39,0-70.7-31.6-70.7-70.7c0-39,31.6-70.7,70.7-70.7
						c39,0,70.7,31.6,70.7,70.7C478.9,150.2,471.4,168.1,458.2,181.4"/>
				</g>
				<g id="Path_4134">
					<path class="st1" d="M225.4,96.8c-15.2-48-59.7-80.7-110.1-80.7l0,0C51.7,16.1,0.1,67.8,0.2,131.4s51.7,115.2,115.4,115.2
						s115.2-51.7,115.2-115.4C230.7,119.5,228.9,107.9,225.4,96.8"/>
				</g>
				<g id="Path_4135">
					<path class="st1" d="M647.4,100.2c-5.6-18.4-16.1-35-30.3-47.9c-41.9,44.4-41.9,113.8,0,158.2c14.2-12.9,24.7-29.5,30.3-47.9
						C636.2,143.3,636.2,119.5,647.4,100.2"/>
				</g>
				<g id="Path_4136">
					<path class="st1" d="M816.4,131.4c0,63.7-51.6,115.3-115.3,115.4c-31.8,0-62.2-13.1-84-36.2c14.2-12.9,24.7-29.5,30.3-47.9
						c-11.2-19.3-11.2-43.1,0-62.4c-5.6-18.4-16.1-35-30.3-47.9C638.9,29.2,669.2,16,701,16.1l0,0
						C764.7,16.1,816.4,67.7,816.4,131.4"/>
				</g>
				<g id="Path_4137">
					<path class="st2" d="M378.4,131.4c0,59.1-48,107-107.1,107c-47.1,0-88.6-30.8-102.3-75.8c11.2-19.3,11.2-43.1,0-62.4
						c17.2-56.6,77-88.5,133.5-71.3C347.6,42.7,378.4,84.3,378.4,131.4"/>
				</g>
				<g id="Path_4138">
					<path class="st2" d="M328.9,131.4c0,0.5,0,1,0,1.4c0,0.3,0,0.6,0,0.9c0,0.3,0,0.6,0,0.9c0,0.3,0,0.7-0.1,1
						c0,0.6-0.1,1.1-0.1,1.6s-0.1,1-0.2,1.4s-0.1,0.9-0.2,1.4c0,0.1,0,0.1,0,0.1c-0.1,0.5-0.1,0.9-0.2,1.4c-0.1,0.4-0.2,0.8-0.2,1.3
						v0.1c-0.1,0.5-0.2,0.9-0.3,1.4c-0.1,0.4-0.2,0.8-0.3,1.2l-0.4,1.6c-0.1,0.4-0.3,0.9-0.4,1.4c-0.1,0.4-0.2,0.8-0.4,1.2
						c-0.2,0.7-0.5,1.5-0.8,2.2c-0.1,0.4-0.3,0.7-0.4,1.1l-0.3,0.8c-0.2,0.5-0.4,1-0.6,1.4c-0.1,0.2-0.2,0.4-0.3,0.6
						c-0.2,0.6-0.5,1.1-0.8,1.6v0.1c-0.3,0.6-0.7,1.3-1,1.9c-0.3,0.6-0.7,1.2-1,1.8c-0.1,0.1-0.1,0.2-0.2,0.3
						c-0.3,0.6-0.7,1.1-1,1.6v0.1c-0.3,0.5-0.7,1-1,1.5c-0.1,0.1-0.2,0.2-0.2,0.3c-0.1,0.1-0.1,0.2-0.2,0.2c-0.4,0.5-0.7,1-1.1,1.5
						c0,0.1-0.1,0.1-0.1,0.2c-0.4,0.5-0.8,1-1.2,1.5c-0.6,0.8-1.3,1.5-1.9,2.2c-0.5,0.5-0.9,1-1.4,1.5
						c-10.8,10.8-25.4,16.9-40.7,16.9c-0.6,0-1.2,0-1.8,0c-0.5,0-1,0-1.5-0.1c-0.4,0-0.7,0-1.1-0.1h-0.1c-0.5,0-0.9-0.1-1.4-0.1
						c-0.4,0-0.9-0.1-1.3-0.1c-1.2-0.1-2.4-0.3-3.6-0.6c-0.4-0.1-0.8-0.2-1.2-0.2c-0.5-0.1-1-0.2-1.5-0.3l-0.3-0.1
						c-0.4-0.1-0.8-0.2-1.2-0.3c-0.1,0-0.2,0-0.3-0.1c-0.4-0.1-0.9-0.2-1.3-0.4c-0.6-0.2-1.2-0.4-1.8-0.6c-0.5-0.2-1.1-0.4-1.6-0.6
						s-1-0.4-1.6-0.6c-0.5-0.2-0.9-0.4-1.4-0.6c-0.1,0-0.1-0.1-0.2-0.1c-0.3-0.1-0.6-0.3-0.9-0.4s-0.6-0.3-0.9-0.4
						c-2.4-1.1-4.7-2.4-6.9-3.9c-0.3-0.2-0.6-0.4-0.9-0.6c-0.2-0.1-0.4-0.3-0.6-0.4c-0.8-0.5-1.5-1.1-2.2-1.7
						c-1-0.8-1.9-1.6-2.9-2.4c-0.3-0.3-0.7-0.6-1-0.9l0,0c-0.4-0.4-0.8-0.8-1.2-1.1c-0.3-0.3-0.7-0.7-1-1c-0.5-0.6-1.1-1.1-1.6-1.7
						c-0.2-0.3-0.4-0.5-0.7-0.8c-0.4-0.5-0.8-1-1.2-1.5l-0.9-1.2c7.1-22.6,7.1-46.7,0-69.3l0.9-1.2c0.4-0.5,0.8-1,1.2-1.5
						c0.2-0.3,0.4-0.5,0.7-0.8c0.5-0.6,1-1.1,1.6-1.7c0.3-0.3,0.6-0.7,1-1c0.3-0.3,0.6-0.6,0.9-0.9c0.3-0.3,0.6-0.6,0.9-0.9
						c0.2-0.2,0.5-0.5,0.8-0.7c0.3-0.3,0.6-0.5,0.9-0.8c0.9-0.7,1.7-1.4,2.6-2.1c0.4-0.3,0.9-0.7,1.3-1c0.5-0.4,1.1-0.8,1.6-1.1
						c0.3-0.2,0.7-0.4,1-0.6s0.6-0.4,0.9-0.5s0.6-0.4,0.9-0.5c0.4-0.2,0.8-0.5,1.2-0.7s0.9-0.5,1.4-0.7s0.9-0.5,1.4-0.7
						c0.1-0.1,0.2-0.1,0.4-0.2c0.4-0.2,0.8-0.3,1.1-0.5c0.4-0.2,0.8-0.3,1.2-0.5c0.3-0.1,0.5-0.2,0.8-0.3c0.5-0.2,0.9-0.4,1.4-0.5
						c0.4-0.2,0.9-0.3,1.4-0.5c0.6-0.2,1.2-0.4,1.8-0.6c0.4-0.1,0.9-0.3,1.3-0.4c0.1,0,0.2-0.1,0.3-0.1c0.4-0.1,0.8-0.2,1.2-0.3
						c0.1,0,0.2-0.1,0.3-0.1c0.5-0.1,1-0.2,1.5-0.3c0.4-0.1,0.8-0.2,1.2-0.2c1.2-0.2,2.4-0.4,3.6-0.6c0.4-0.1,0.9-0.1,1.3-0.1
						c0.5-0.1,0.9-0.1,1.4-0.1h0.1c0.4,0,0.7-0.1,1.1-0.1c0.5,0,1-0.1,1.5-0.1c0.6,0,1.2,0,1.8,0c0.6,0,1.2,0,1.9,0
						c0.5,0,1.1,0,1.6,0.1c0.1,0,0.2,0,0.3,0c0.5,0,0.9,0.1,1.3,0.1c1.9,0.2,3.7,0.4,5.5,0.8c0.5,0.1,1,0.2,1.5,0.3
						c0.1,0,0.1,0,0.2,0c0.5,0.1,1,0.2,1.5,0.3c1.8,0.5,3.6,1,5.4,1.6c0.4,0.2,0.9,0.3,1.3,0.5c0.4,0.1,0.7,0.3,1.1,0.4
						c0.2,0.1,0.5,0.2,0.7,0.3c1,0.4,1.9,0.8,2.8,1.3c0.5,0.2,1,0.5,1.4,0.7c2.8,1.5,5.5,3.2,8,5.1c0.3,0.2,0.6,0.4,0.8,0.6
						c0.1,0.1,0.2,0.2,0.3,0.2c0.3,0.2,0.6,0.5,0.9,0.7c0.4,0.3,0.7,0.6,1.1,0.9c0.7,0.6,1.4,1.2,2,1.8c0.3,0.3,0.7,0.6,1,1
						s0.6,0.7,1,1s0.6,0.7,0.9,1c0.6,0.7,1.2,1.4,1.8,2.1c0.2,0.3,0.5,0.6,0.7,0.9c0.5,0.7,1.1,1.4,1.6,2.1s1,1.3,1.4,2
						c0.4,0.5,0.7,1.1,1,1.6l0.1,0.1c0.4,0.6,0.7,1.2,1,1.8c0.4,0.6,0.7,1.2,1,1.9c0,0,0,0,0,0.1c0.3,0.6,0.6,1.2,0.9,1.8
						c0.1,0.1,0.1,0.2,0.2,0.4c0.2,0.5,0.5,1.1,0.7,1.6c0.1,0.1,0.1,0.3,0.2,0.4c0.3,0.6,0.5,1.2,0.7,1.9s0.5,1.3,0.7,1.9
						c0.1,0.3,0.2,0.7,0.3,1.1c0.1,0.4,0.3,0.8,0.4,1.3c0.3,1,0.5,1.9,0.8,2.9c0.1,0.4,0.2,0.8,0.2,1.2c0,0.1,0,0.2,0.1,0.3
						c0.1,0.4,0.2,0.8,0.2,1.3c0.2,1,0.3,1.9,0.4,2.9c0.1,0.5,0.1,0.9,0.2,1.4c0.1,0.6,0.1,1.1,0.1,1.7c0,0.3,0,0.7,0.1,1
						c0,0.3,0,0.6,0,0.9s0,0.6,0,0.9C328.9,130.5,328.9,130.9,328.9,131.4"/>
				</g>
				<g id="Path_4139">
					<path class="st2" d="M638.4,130c0,11,2.9,21.7,8.4,31.2c-17.2,56.5-77,88.4-133.5,71.2c-17.2-5.2-32.8-14.7-45.3-27.5l0,0l0,0
						c-6-6.1-11.2-12.9-15.6-20.2c-3.4-5.7-6.2-11.6-8.5-17.8l0,0c-8.7-23.8-8.7-49.8,0-73.6l0,0c5.2-14.2,13.4-27.2,24.1-38.1l0,0
						l0,0c41.4-42.2,109.2-42.9,151.4-1.5c12.8,12.5,22.2,28.1,27.5,45.2C641.3,108.2,638.4,119,638.4,130"/>
				</g>
				<g id="Path_4140">
					<path class="st3" d="M360.5,151.5c0,0.1,0.1,0.2,0.1,0.3s0.1,0.2,0.1,0.2C360.6,151.8,360.6,151.6,360.5,151.5"/>
				</g>
				<g id="Path_4141">
					<path class="st3" d="M360.5,151.5c0,0.1,0.1,0.2,0.1,0.3s0.1,0.2,0.1,0.2C360.6,151.8,360.6,151.6,360.5,151.5"/>
				</g>
				<g id="Path_4142">
					<path class="st3" d="M356.6,134.2c0-0.4,0-0.8,0-1.2C356.5,133.5,356.5,133.8,356.6,134.2"/>
				</g>
				<g id="Path_4143">
					<path class="st3" d="M356.7,136c-0.1-0.6-0.1-1.2-0.1-1.7C356.6,134.8,356.6,135.4,356.7,136"/>
				</g>
				<g id="Path_4144">
					<path class="st3" d="M356.6,128.6c0,0.4,0,0.8,0,1.2C356.5,129.4,356.5,129,356.6,128.6"/>
				</g>
				<g id="Path_4145">
					<path class="st3" d="M356.7,127c0,0.6-0.1,1.1-0.1,1.7C356.6,128.1,356.6,127.5,356.7,127"/>
				</g>
				<g id="Path_4146">
					<path class="st3" d="M357.8,143.1c-0.1-0.3-0.1-0.6-0.2-1c0-0.1,0-0.2,0-0.3C357.6,142.3,357.7,142.7,357.8,143.1"/>
				</g>
				<g id="Path_4147">
					<path class="st3" d="M357.5,141.8L357.5,141.8c-0.1-0.3-0.1-0.6-0.2-1C357.4,141.1,357.4,141.4,357.5,141.8"/>
				</g>
				<g id="Path_4148">
					<path class="st3" d="M357.1,123.4c-0.1,0.4-0.1,0.8-0.2,1.2C356.9,124.2,357,123.9,357.1,123.4
						C357.1,123.5,357.1,123.5,357.1,123.4"/>
				</g>
				<g id="Path_4149">
					<path class="st3" d="M358.4,117.3c-0.2,0.8-0.4,1.6-0.6,2.4c0.1-0.4,0.2-0.8,0.3-1.2C358.2,118.1,358.3,117.7,358.4,117.3"/>
				</g>
				<g id="Path_4150">
					<path class="st3" d="M358.8,146.9c0.1,0.5,0.3,0.9,0.4,1.3c0-0.1,0-0.1-0.1-0.2C359.1,147.6,358.9,147.3,358.8,146.9"/>
				</g>
				<g id="Path_4151">
					<path class="st3" d="M365.8,161.1c0.2,0.3,0.4,0.5,0.6,0.8c-0.1-0.2-0.2-0.3-0.4-0.5C365.9,161.3,365.9,161.2,365.8,161.1"/>
				</g>
				<g id="Path_4152">
					<path class="st3" d="M360.7,152c0-0.1-0.1-0.2-0.1-0.2c0-0.1-0.1-0.2-0.1-0.3C360.6,151.6,360.6,151.8,360.7,152"/>
				</g>
				<g id="Path_4153">
					<path class="st3" d="M367.7,163.6c0.2,0.2,0.3,0.4,0.5,0.6C368,164,367.8,163.8,367.7,163.6"/>
				</g>
				<g id="Path_4154">
					<path class="st3" d="M378,173.4c0.2,0.1,0.3,0.3,0.5,0.4l0,0C378.3,173.7,378.2,173.5,378,173.4"/>
				</g>
				<g id="Path_4155">
					<path class="st3" d="M375.6,171.6L375.6,171.6L375.6,171.6"/>
				</g>
				<g id="Path_4156">
					<path class="st3" d="M373.9,170.1c0.1,0.1,0.2,0.2,0.4,0.3l-0.1-0.1C374,170.2,373.9,170.2,373.9,170.1"/>
				</g>
				<g id="Path_4157">
					<path class="st3" d="M379.4,174.4c0.5,0.4,1.1,0.7,1.7,1.1C380.5,175.1,380,174.8,379.4,174.4
						C379.5,174.4,379.4,174.4,379.4,174.4"/>
				</g>
				<g id="Path_4158">
					<path class="st3" d="M368.2,164.2c0,0.1,0.1,0.1,0.1,0.2C368.3,164.3,368.2,164.3,368.2,164.2L368.2,164.2"/>
				</g>
				<g id="Path_4159">
					<path class="st3" d="M370.6,167c0.4,0.4,0.8,0.8,1.2,1.3C371.4,167.8,371,167.4,370.6,167"/>
				</g>
				<g id="Path_4160">
					<path class="st3" d="M371.8,168.2L371.8,168.2L371.8,168.2L371.8,168.2"/>
				</g>
				<g id="Path_4161">
					<path class="st3" d="M374.2,170.4c0.5,0.4,0.9,0.8,1.4,1.2C375.2,171.2,374.7,170.8,374.2,170.4"/>
				</g>
				<g id="Path_4162">
					<path class="st3" d="M370.5,166.8l0.1,0.1l0,0C370.6,166.9,370.5,166.9,370.5,166.8"/>
				</g>
				<g id="Path_4163">
					<path class="st3" d="M378.5,173.8c0.3,0.2,0.6,0.4,0.9,0.6C379.1,174.2,378.8,174,378.5,173.8"/>
				</g>
				<g id="Path_4164">
					<path class="st3" d="M373.4,169.7c0.1,0.1,0.3,0.3,0.5,0.4c-0.7-0.6-1.3-1.2-2-1.8C372.4,168.8,372.9,169.2,373.4,169.7"/>
				</g>
				<g id="Path_4165">
					<path class="st3" d="M378,173.4L378,173.4c-0.8-0.6-1.6-1.2-2.3-1.8c0.5,0.4,1.1,0.8,1.6,1.2
						C377.5,173.1,377.7,173.2,378,173.4"/>
				</g>
				<g id="Path_4166">
					<path class="st3" d="M369.9,166.2c0.2,0.2,0.4,0.4,0.6,0.6c-0.8-0.8-1.5-1.7-2.2-2.5C368.8,165,369.4,165.6,369.9,166.2"/>
				</g>
				<g id="Path_4167">
					<path class="st3" d="M366.4,161.9c0.4,0.6,0.9,1.1,1.3,1.7c-0.1-0.1-0.1-0.1-0.2-0.2c-0.2-0.3-0.5-0.6-0.8-1
						C366.6,162.2,366.5,162,366.4,161.9"/>
				</g>
				<g id="Path_4168">
					<path class="st3" d="M381.1,175.5c0.6,0.4,1.3,0.7,1.9,1.1c-0.1-0.1-0.2-0.1-0.3-0.2C382.1,176.1,381.6,175.8,381.1,175.5"/>
				</g>
				<g id="Path_4169">
					<path class="st3" d="M386.9,178.6c0.1,0.1,0.3,0.1,0.4,0.2c-0.1,0-0.1-0.1-0.2-0.1S386.9,178.6,386.9,178.6"/>
				</g>
				<g id="Path_4170">
					<path class="st3" d="M389.1,179.5c-0.6-0.2-1.2-0.5-1.8-0.8C387.9,179,388.5,179.3,389.1,179.5"/>
				</g>
				<g id="Path_4171">
					<path class="st3" d="M383.7,177c0.3,0.1,0.5,0.3,0.8,0.4c-0.5-0.3-1-0.5-1.6-0.8C383.2,176.7,383.5,176.9,383.7,177"/>
				</g>
				<g id="Path_4172">
					<path class="st3" d="M391.3,180.3c-0.8-0.3-1.5-0.5-2.2-0.8C389.8,179.8,390.5,180.1,391.3,180.3"/>
				</g>
				<g id="Path_4173">
					<path class="st3" d="M386,178.1c0.3,0.1,0.6,0.3,0.9,0.4c-0.6-0.3-1.2-0.6-1.8-0.9C385.3,177.8,385.6,178,386,178.1"/>
				</g>
				<g id="Path_4174">
					<path class="st3" d="M396,181.7c0.3,0.1,0.6,0.1,0.9,0.2c-0.1,0-0.2,0-0.2,0C396.4,181.8,396.2,181.7,396,181.7"/>
				</g>
				<g id="Path_4175">
					<path class="st3" d="M398.8,182.3c0.1,0,0.3,0,0.4,0.1c-0.1,0-0.1,0-0.2,0S398.9,182.3,398.8,182.3"/>
				</g>
				<g id="Path_4176">
					<path class="st3" d="M396,181.7l-0.3-0.1c-0.3-0.1-0.7-0.2-1-0.3C395.1,181.5,395.5,181.6,396,181.7"/>
				</g>
				<g id="Path_4177">
					<path class="st3" d="M396.9,181.9c0.7,0.1,1.3,0.3,2,0.4C398.2,182.2,397.5,182,396.9,181.9"/>
				</g>
				<g id="Path_4178">
					<path class="st3" d="M417.3,182.3L417.3,182.3L417.3,182.3L417.3,182.3"/>
				</g>
				<g id="Path_4179">
					<path class="st3" d="M422.3,181.2c-1.6,0.5-3.3,0.8-4.9,1.1c0.4-0.1,0.8-0.1,1.3-0.2s0.8-0.2,1.3-0.3
						C420.7,181.6,421.5,181.4,422.3,181.2"/>
				</g>
				<g id="Path_4180">
					<path class="st3" d="M497.1,163.3c-0.4-0.6-0.8-1.2-1.2-1.9c-0.1-0.2-0.3-0.4-0.4-0.6c-0.6-1-1.2-2.1-1.8-3.2
						c-0.2-0.4-0.4-0.8-0.6-1.2c-0.4-0.8-0.8-1.7-1.2-2.6c-0.1-0.4-0.3-0.7-0.4-1.1c-0.4-1-0.7-1.9-1.1-2.9
						c-0.1-0.4-0.3-0.9-0.4-1.3c-0.1-0.4-0.3-0.9-0.4-1.4l-0.4-1.6c-0.1-0.4-0.2-0.8-0.3-1.2c-0.1-0.5-0.2-0.9-0.3-1.4
						c0-0.1,0-0.1,0-0.1c-0.1-0.4-0.2-0.9-0.2-1.3c-0.1-0.5-0.2-0.9-0.2-1.4V140c-0.1-0.4-0.1-0.9-0.2-1.4s-0.1-1-0.2-1.4
						c-0.1-0.6-0.1-1.1-0.1-1.6c0-0.3,0-0.7-0.1-1c0-0.3,0-0.6,0-0.9s0-0.6,0-0.9c0-0.5,0-1,0-1.4s0-1,0-1.4c0-0.3,0-0.6,0-0.9
						c0-0.3,0-0.6,0-0.9c0-0.3,0-0.7,0.1-1c0-0.6,0.1-1.1,0.1-1.7c0-0.5,0.1-1,0.2-1.4s0.1-0.9,0.2-1.3c0-0.1,0-0.1,0-0.1
						c0.1-0.5,0.1-0.9,0.2-1.4c0.1-0.4,0.2-0.8,0.2-1.3v-0.1c0.1-0.5,0.2-0.9,0.3-1.4c0.1-0.4,0.2-0.8,0.3-1.2l0.4-1.6
						c0.1-0.5,0.3-0.9,0.4-1.4c0.1-0.4,0.3-0.9,0.4-1.3c0.3-1,0.7-2,1.1-2.9c0.1-0.4,0.3-0.7,0.4-1.1c0.4-0.9,0.8-1.7,1.2-2.6
						c0.2-0.4,0.4-0.8,0.6-1.2c0.5-1.1,1.1-2.2,1.8-3.2c0.1-0.2,0.3-0.4,0.4-0.7c0.4-0.6,0.8-1.2,1.2-1.8c0.2-0.3,0.4-0.6,0.6-0.9
						s0.4-0.6,0.6-0.9c-18.6-49.7-74-75-123.8-56.4c-26.1,9.8-46.7,30.4-56.5,56.5c0.5,0.7,1,1.3,1.4,2c0.4,0.5,0.7,1.1,1,1.6
						l0.1,0.1c0.4,0.6,0.7,1.2,1,1.8c0.4,0.6,0.7,1.2,1,1.9c0,0,0,0,0,0.1c0.3,0.6,0.6,1.2,0.9,1.8c0.1,0.1,0.1,0.2,0.2,0.4
						c0.2,0.5,0.5,1.1,0.7,1.6c0.1,0.1,0.1,0.3,0.2,0.4c0.3,0.6,0.5,1.2,0.7,1.9s0.5,1.3,0.7,1.9c0.1,0.3,0.2,0.7,0.3,1.1
						c0.1,0.4,0.3,0.8,0.4,1.3c0.3,1,0.5,1.9,0.8,2.9c0.1,0.4,0.2,0.8,0.2,1.2c0,0.1,0,0.2,0.1,0.3c0.1,0.4,0.2,0.8,0.2,1.3
						c0.2,1,0.3,1.9,0.4,2.9c0.1,0.5,0.1,0.9,0.2,1.4c0.1,0.6,0.1,1.1,0.1,1.7c0,0.3,0,0.7,0.1,1c0,0.3,0,0.6,0,0.9s0,0.6,0,0.9
						c0,0.5,0,1,0,1.4s0,1,0,1.4c0,0.3,0,0.6,0,0.9c0,0.3,0,0.6,0,0.9c0,0.3,0,0.7-0.1,1c0,0.6-0.1,1.1-0.1,1.6s-0.1,1-0.2,1.4
						s-0.1,0.9-0.2,1.4c0,0.1,0,0.1,0,0.1c-0.1,0.5-0.1,0.9-0.2,1.4c-0.1,0.4-0.2,0.8-0.2,1.3v0.1c-0.1,0.5-0.2,0.9-0.3,1.4
						c-0.1,0.4-0.2,0.8-0.3,1.2l-0.4,1.6c-0.1,0.4-0.3,0.9-0.4,1.4c-0.1,0.4-0.2,0.8-0.4,1.2c-0.2,0.7-0.5,1.5-0.8,2.2
						c-0.1,0.4-0.3,0.7-0.4,1.1l-0.3,0.8c-0.2,0.5-0.4,1-0.6,1.4c-0.1,0.2-0.2,0.4-0.3,0.6c-0.2,0.6-0.5,1.1-0.8,1.6v0.1
						c-0.3,0.6-0.7,1.3-1,1.9c-0.3,0.6-0.7,1.2-1,1.8c-0.1,0.1-0.1,0.2-0.2,0.3c-0.3,0.6-0.7,1.1-1,1.6v0.1c-0.3,0.5-0.7,1-1,1.5
						c-0.1,0.1-0.2,0.2-0.2,0.3c18.6,49.8,74,75.1,123.8,56.5c26.1-9.8,46.7-30.4,56.5-56.5c-0.2-0.3-0.4-0.6-0.6-0.9
						S497.3,163.6,497.1,163.3 M360.6,151.7c0-0.1-0.1-0.2-0.1-0.3c0.1,0.2,0.1,0.3,0.2,0.5C360.7,151.9,360.6,151.8,360.6,151.7"/>
				</g>
				<g id="Path_4181">
					<path class="st3" d="M427,179.6c1-0.4,1.9-0.8,2.8-1.2c-0.2,0.1-0.4,0.2-0.5,0.2C428.6,179,427.8,179.3,427,179.6"/>
				</g>
				<g id="Path_4182">
					<path class="st3" d="M432.4,177.1c0.4-0.2,0.9-0.5,1.3-0.7c-0.4,0.2-0.7,0.4-1.1,0.6C432.6,177,432.5,177.1,432.4,177.1"/>
				</g>
				<g id="Path_4183">
					<path class="st3" d="M431.6,177.6c0.3-0.1,0.6-0.3,0.9-0.4c-0.5,0.3-1,0.5-1.5,0.8C431.1,177.8,431.3,177.7,431.6,177.6"/>
				</g>
				<g id="Path_4184">
					<path class="st3" d="M429.9,178.4c0.3-0.1,0.6-0.3,1-0.5l-0.4,0.2C430.3,178.2,430.1,178.3,429.9,178.4"/>
				</g>
			</g>
		</g>
	</g>
</g>
<g class="st4">
	<path class="st3" d="M50.6,109.8v24.4h-6.9v-19.1h-4.5v-5.3H50.6z"/>
	<path class="st3" d="M64.8,109.8v24.4h-6.9v-19.1h-4.5v-5.3H64.8z"/>
	<path class="st3" d="M76.1,130.6c0,1-0.1,1.7-1.2,4l-2.2,5.1h-4.2l1.6-5.7c-1.3-0.6-2.1-1.8-2.1-3.4c0-2.4,1.7-3.9,4-3.9
		C74.5,126.7,76.1,128.2,76.1,130.6z"/>
	<path class="st3" d="M77.8,122c0-8.1,4.5-12.7,10.8-12.7c6.2,0,10.8,4.6,10.8,12.7s-4.5,12.7-10.8,12.7
		C82.4,134.7,77.8,130.1,77.8,122z M92.4,122c0-5.1-1.6-7.1-3.8-7.1c-2.2,0-3.8,1.9-3.8,7.1s1.6,7.1,3.8,7.1
		C90.8,129,92.4,127.1,92.4,122z"/>
	<path class="st3" d="M101.7,122c0-8.1,4.5-12.7,10.8-12.7c6.2,0,10.8,4.6,10.8,12.7s-4.5,12.7-10.8,12.7
		C106.3,134.7,101.7,130.1,101.7,122z M116.3,122c0-5.1-1.6-7.1-3.8-7.1c-2.2,0-3.8,1.9-3.8,7.1s1.6,7.1,3.8,7.1
		C114.7,129,116.3,127.1,116.3,122z"/>
	<path class="st3" d="M125.7,122c0-8.1,4.5-12.7,10.8-12.7c6.2,0,10.8,4.6,10.8,12.7s-4.5,12.7-10.8,12.7
		C130.2,134.7,125.7,130.1,125.7,122z M140.3,122c0-5.1-1.6-7.1-3.8-7.1c-2.2,0-3.8,1.9-3.8,7.1s1.6,7.1,3.8,7.1
		C138.7,129,140.3,127.1,140.3,122z"/>
	<path class="st3" d="M167.7,124.5h-5.9v5.8h-5.4v-5.8h-5.9v-5.1h5.9v-5.8h5.4v5.8h5.9V124.5z"/>
</g>
<text transform="matrix(1 0 0 1 28.702 154.286)" class="st3 st5 st6">N</text>
<g class="st4">
	<path class="st3" d="M49.9,150.6h-6.8c0.1,1.7,1.4,2.8,3.2,2.8c1,0,1.9-0.4,2.5-1.1l0.6,0.7c-0.7,0.9-1.9,1.3-3.1,1.3
		c-2.5,0-4.3-1.7-4.3-4.1c0-2.4,1.7-4.1,4-4.1c2.3,0,3.9,1.7,3.9,4.1C49.9,150.3,49.9,150.4,49.9,150.6z M43.1,149.7h5.8
		c-0.1-1.6-1.3-2.7-2.9-2.7C44.4,147,43.2,148.2,43.1,149.7z"/>
</g>
<g class="st4">
	<path class="st3" d="M63.9,146.2l-3.1,8.1h-1l-2.6-6.7l-2.6,6.7h-1l-3.1-8.1h1.1l2.5,6.9l2.6-6.9h0.9l2.6,6.9l2.6-6.9H63.9z"/>
</g>
<g class="st4">
	<path class="st3" d="M64.3,153.4l0.5-0.9c0.6,0.5,1.7,0.9,2.9,0.9c1.5,0,2.2-0.5,2.2-1.3c0-2.1-5.3-0.4-5.3-3.7
		c0-1.3,1.1-2.3,3.2-2.3c1.1,0,2.2,0.3,2.9,0.8l-0.5,0.9c-0.7-0.5-1.6-0.7-2.4-0.7c-1.5,0-2.1,0.6-2.1,1.3c0,2.2,5.3,0.5,5.3,3.7
		c0,1.4-1.2,2.3-3.4,2.3C66.3,154.4,65,153.9,64.3,153.4z"/>
	<path class="st3" d="M73,142.8h1.1v11.5H73V142.8z"/>
	<path class="st3" d="M84.2,150.6h-6.8c0.1,1.7,1.4,2.8,3.2,2.8c1,0,1.9-0.4,2.5-1.1l0.6,0.7c-0.7,0.9-1.9,1.3-3.1,1.3
		c-2.5,0-4.3-1.7-4.3-4.1c0-2.4,1.7-4.1,4-4.1c2.3,0,3.9,1.7,3.9,4.1C84.2,150.3,84.2,150.4,84.2,150.6z M77.4,149.7h5.8
		c-0.1-1.6-1.3-2.7-2.9-2.7C78.7,147,77.6,148.2,77.4,149.7z"/>
</g>
<g class="st4">
	<path class="st3" d="M90.8,153.8c-0.4,0.4-1.1,0.6-1.7,0.6c-1.5,0-2.4-0.9-2.4-2.4v-4.9h-1.5v-0.9h1.5v-1.8h1.1v1.8h2.5v0.9h-2.5
		v4.8c0,1,0.5,1.5,1.4,1.5c0.4,0,0.9-0.1,1.2-0.4L90.8,153.8z"/>
</g>
<g class="st4">
	<path class="st3" d="M96.8,153.8c-0.4,0.4-1.1,0.6-1.7,0.6c-1.5,0-2.4-0.9-2.4-2.4v-4.9h-1.5v-0.9h1.5v-1.8h1.1v1.8h2.5v0.9h-2.5
		v4.8c0,1,0.5,1.5,1.4,1.5c0.4,0,0.9-0.1,1.2-0.4L96.8,153.8z"/>
</g>
<g class="st4">
	<path class="st3" d="M105.6,150.6h-6.8c0.1,1.7,1.4,2.8,3.2,2.8c1,0,1.9-0.4,2.5-1.1l0.6,0.7c-0.7,0.9-1.9,1.3-3.1,1.3
		c-2.5,0-4.3-1.7-4.3-4.1c0-2.4,1.7-4.1,4-4.1c2.3,0,3.9,1.7,3.9,4.1C105.6,150.3,105.6,150.4,105.6,150.6z M98.8,149.7h5.8
		c-0.1-1.6-1.3-2.7-2.9-2.7C100.1,147,99,148.2,98.8,149.7z"/>
	<path class="st3" d="M112,146.1v1.1c-0.1,0-0.2,0-0.3,0c-1.7,0-2.7,1.1-2.7,3v4.1h-1.1v-8.1h1v1.6
		C109.4,146.7,110.5,146.1,112,146.1z"/>
	<path class="st3" d="M125.7,154.3l-2.5-3.5c-0.3,0-0.6,0-0.9,0h-2.9v3.4h-1.1v-10.8h4c2.7,0,4.4,1.4,4.4,3.7c0,1.7-0.9,2.9-2.5,3.4
		l2.6,3.7H125.7z M125.7,147.2c0-1.7-1.1-2.7-3.3-2.7h-2.9v5.4h2.9C124.5,149.9,125.7,148.9,125.7,147.2z"/>
</g>
<g class="st4">
	<path class="st3" d="M136.3,150.6h-6.8c0.1,1.7,1.4,2.8,3.2,2.8c1,0,1.9-0.4,2.5-1.1l0.6,0.7c-0.7,0.9-1.9,1.3-3.1,1.3
		c-2.5,0-4.3-1.7-4.3-4.1c0-2.4,1.7-4.1,4-4.1c2.3,0,3.9,1.7,3.9,4.1C136.4,150.3,136.3,150.4,136.3,150.6z M129.5,149.7h5.8
		c-0.1-1.6-1.3-2.7-2.9-2.7C130.8,147,129.7,148.2,129.5,149.7z"/>
</g>
<g class="st4">
	<path class="st3" d="M144.5,149.3v5h-1V153c-0.5,0.8-1.5,1.3-2.8,1.3c-1.8,0-3-1-3-2.4c0-1.3,0.8-2.3,3.1-2.3h2.6v-0.5
		c0-1.4-0.8-2.1-2.3-2.1c-1,0-2,0.4-2.7,1l-0.5-0.8c0.8-0.7,2-1.1,3.3-1.1C143.3,146.1,144.5,147.2,144.5,149.3z M143.4,151.8v-1.3
		h-2.5c-1.6,0-2.1,0.6-2.1,1.5c0,0.9,0.8,1.5,2.1,1.5C142.1,153.5,143,152.9,143.4,151.8z"/>
</g>
<g class="st4">
	<path class="st3" d="M146.7,150.2c0-2.4,1.8-4.1,4.2-4.1c1.4,0,2.5,0.5,3.2,1.6l-0.8,0.6c-0.6-0.8-1.4-1.2-2.4-1.2
		c-1.8,0-3.1,1.3-3.1,3.2c0,1.9,1.3,3.2,3.1,3.2c0.9,0,1.8-0.4,2.4-1.2l0.8,0.6c-0.6,1-1.8,1.6-3.2,1.6
		C148.5,154.4,146.7,152.6,146.7,150.2z"/>
</g>
<g class="st4">
	<path class="st3" d="M163.6,149.6v4.7h-1.1v-4.6c0-1.7-0.9-2.6-2.4-2.6c-1.7,0-2.8,1.1-2.8,2.9v4.3h-1.1v-11.5h1.1v4.8
		c0.6-0.9,1.7-1.5,3-1.5C162.2,146.1,163.6,147.2,163.6,149.6z"/>
</g>
<g class="st4">
	<path class="st3" d="M538.1,100v4.3l-8.6,20.1h-7.5l8.2-19h-6.4v3.8h-5.9V100H538.1z"/>
	<path class="st3" d="M539.6,112.2c0-8.1,4.5-12.7,10.8-12.7c6.2,0,10.8,4.6,10.8,12.7s-4.5,12.7-10.8,12.7
		C544.1,125,539.6,120.3,539.6,112.2z M554.2,112.2c0-5.1-1.6-7.1-3.8-7.1c-2.2,0-3.8,1.9-3.8,7.1s1.6,7.1,3.8,7.1
		C552.6,119.3,554.2,117.4,554.2,112.2z"/>
	<path class="st3" d="M563.5,112.2c0-8.1,4.5-12.7,10.8-12.7c6.2,0,10.8,4.6,10.8,12.7s-4.5,12.7-10.8,12.7
		C568.1,125,563.5,120.3,563.5,112.2z M578.1,112.2c0-5.1-1.6-7.1-3.8-7.1c-2.2,0-3.8,1.9-3.8,7.1s1.6,7.1,3.8,7.1
		C576.5,119.3,578.1,117.4,578.1,112.2z"/>
	<path class="st3" d="M605.6,114.8h-5.9v5.8h-5.4v-5.8h-5.9v-5.1h5.9v-5.8h5.4v5.8h5.9V114.8z"/>
</g>
<g class="st4">
	<path class="st3" d="M511.5,144.5v1h-7.6v-0.8l4.5-4.4c1.2-1.2,1.5-1.9,1.5-2.7c0-1.2-0.9-2-2.5-2c-1.3,0-2.2,0.4-2.9,1.2l-0.8-0.7
		c0.8-1,2.2-1.5,3.8-1.5c2.2,0,3.6,1.1,3.6,2.9c0,1-0.3,2-1.8,3.4l-3.7,3.6H511.5z"/>
</g>
<g class="st4">
	<path class="st3" d="M512.8,140.1c0-3.4,1.8-5.5,4.3-5.5c2.5,0,4.3,2.1,4.3,5.5c0,3.4-1.8,5.5-4.3,5.5
		C514.6,145.6,512.8,143.5,512.8,140.1z M520.3,140.1c0-2.9-1.3-4.5-3.2-4.5s-3.2,1.6-3.2,4.5s1.3,4.5,3.2,4.5
		S520.3,143,520.3,140.1z"/>
</g>
<g class="st4">
	<path class="st3" d="M530.4,144.5v1h-7.6v-0.8l4.5-4.4c1.2-1.2,1.5-1.9,1.5-2.7c0-1.2-0.9-2-2.5-2c-1.3,0-2.2,0.4-2.9,1.2l-0.8-0.7
		c0.8-1,2.2-1.5,3.8-1.5c2.2,0,3.6,1.1,3.6,2.9c0,1-0.3,2-1.8,3.4l-3.7,3.6H530.4z"/>
	<path class="st3" d="M539,142.4c0,1.8-1.3,3.2-3.9,3.2c-1.6,0-3.1-0.5-3.9-1.4l0.5-0.9c0.7,0.7,1.9,1.3,3.4,1.3
		c1.8,0,2.8-0.8,2.8-2.2c0-1.3-0.9-2.1-2.9-2.1h-0.8v-0.8l3-3.8h-5.5v-1h6.9v0.8l-3.1,3.8C537.8,139.5,539,140.7,539,142.4z"/>
</g>
<g class="st4">
	<path class="st3" d="M552.4,142.6h-6l-1.3,2.9h-1.2l4.9-10.8h1.1l4.9,10.8h-1.2L552.4,142.6z M552,141.7l-2.6-5.8l-2.6,5.8H552z"/>
</g>
<g class="st4">
	<path class="st3" d="M560.7,145c-0.4,0.4-1.1,0.6-1.7,0.6c-1.5,0-2.4-0.9-2.4-2.4v-4.9h-1.5v-0.9h1.5v-1.8h1.1v1.8h2.5v0.9h-2.5
		v4.8c0,1,0.5,1.5,1.4,1.5c0.4,0,0.9-0.1,1.2-0.4L560.7,145z"/>
</g>
<g class="st4">
	<path class="st3" d="M566.7,145c-0.4,0.4-1.1,0.6-1.7,0.6c-1.5,0-2.4-0.9-2.4-2.4v-4.9h-1.5v-0.9h1.5v-1.8h1.1v1.8h2.5v0.9h-2.5
		v4.8c0,1,0.5,1.5,1.4,1.5c0.4,0,0.9-0.1,1.2-0.4L566.7,145z"/>
</g>
<g class="st4">
	<path class="st3" d="M575.5,141.8h-6.8c0.1,1.7,1.4,2.8,3.2,2.8c1,0,1.9-0.4,2.5-1.1l0.6,0.7c-0.7,0.9-1.9,1.3-3.1,1.3
		c-2.5,0-4.3-1.7-4.3-4.1c0-2.4,1.7-4.1,4-4.1c2.3,0,3.9,1.7,3.9,4.1C575.5,141.5,575.5,141.7,575.5,141.8z M568.7,141h5.8
		c-0.1-1.6-1.3-2.7-2.9-2.7C570,138.3,568.9,139.4,568.7,141z"/>
</g>
<g class="st4">
	<path class="st3" d="M585.2,140.8v4.7h-1.1v-4.6c0-1.7-0.9-2.6-2.4-2.6c-1.7,0-2.8,1.1-2.8,2.9v4.3h-1.1v-8.1h1v1.5
		c0.6-1,1.7-1.6,3.1-1.6C583.9,137.3,585.2,138.5,585.2,140.8z"/>
</g>
<g class="st4">
	<path class="st3" d="M595.6,134v11.5h-1v-1.6c-0.7,1.1-1.8,1.7-3.1,1.7c-2.3,0-4-1.7-4-4.1c0-2.5,1.7-4.1,4-4.1
		c1.3,0,2.4,0.6,3.1,1.6V134H595.6z M594.6,141.4c0-1.9-1.3-3.2-3-3.2c-1.7,0-3,1.3-3,3.2s1.3,3.2,3,3.2
		C593.3,144.6,594.6,143.3,594.6,141.4z"/>
	<path class="st3" d="M605.8,141.8H599c0.1,1.7,1.4,2.8,3.2,2.8c1,0,1.9-0.4,2.5-1.1l0.6,0.7c-0.7,0.9-1.9,1.3-3.1,1.3
		c-2.5,0-4.3-1.7-4.3-4.1c0-2.4,1.7-4.1,4-4.1c2.3,0,3.9,1.7,3.9,4.1C605.8,141.5,605.8,141.7,605.8,141.8z M599,141h5.8
		c-0.1-1.6-1.3-2.7-2.9-2.7C600.3,138.3,599.1,139.4,599,141z"/>
	<path class="st3" d="M606.9,144.6l0.5-0.9c0.6,0.5,1.7,0.9,2.9,0.9c1.5,0,2.2-0.5,2.2-1.3c0-2.1-5.3-0.4-5.3-3.7
		c0-1.3,1.1-2.3,3.2-2.3c1.1,0,2.2,0.3,2.9,0.8l-0.5,0.9c-0.7-0.5-1.6-0.7-2.4-0.7c-1.5,0-2.1,0.6-2.1,1.3c0,2.2,5.3,0.5,5.3,3.7
		c0,1.4-1.2,2.3-3.4,2.3C608.9,145.6,607.6,145.2,606.9,144.6z"/>
	<path class="st3" d="M614.5,144.6l0.5-0.9c0.6,0.5,1.7,0.9,2.9,0.9c1.5,0,2.2-0.5,2.2-1.3c0-2.1-5.3-0.4-5.3-3.7
		c0-1.3,1.1-2.3,3.2-2.3c1,0,2.2,0.3,2.9,0.8l-0.5,0.9c-0.7-0.5-1.6-0.7-2.4-0.7c-1.5,0-2.1,0.6-2.1,1.3c0,2.2,5.3,0.5,5.3,3.7
		c0,1.4-1.2,2.3-3.4,2.3C616.4,145.6,615.1,145.2,614.5,144.6z"/>
</g>
<g class="st4">
	<path class="st3" d="M543.5,154.2h-3.8v-1h8.7v1h-3.8v9.8h-1.1V154.2z"/>
</g>
<g class="st4">
	<path class="st3" d="M555.7,159v5h-1v-1.3c-0.5,0.8-1.5,1.3-2.8,1.3c-1.8,0-3-1-3-2.4c0-1.3,0.8-2.3,3.1-2.3h2.6V159
		c0-1.4-0.8-2.1-2.3-2.1c-1,0-2,0.4-2.7,1l-0.5-0.8c0.8-0.7,2-1.1,3.3-1.1C554.5,155.9,555.7,156.9,555.7,159z M554.6,161.6v-1.3
		H552c-1.6,0-2.1,0.6-2.1,1.5c0,0.9,0.8,1.5,2.1,1.5C553.2,163.3,554.2,162.7,554.6,161.6z"/>
</g>
<g class="st4">
	<path class="st3" d="M562.8,155.9v1.1c-0.1,0-0.2,0-0.3,0c-1.7,0-2.7,1.1-2.7,3v4.1h-1.1v-8.1h1v1.6
		C560.2,156.4,561.3,155.9,562.8,155.9z"/>
</g>
<g class="st4">
	<path class="st3" d="M572.2,155.9v7.1c0,2.8-1.4,4.1-4.1,4.1c-1.5,0-2.9-0.4-3.8-1.3l0.6-0.8c0.8,0.7,1.9,1.1,3.2,1.1
		c2.1,0,3-0.9,3-2.9v-1c-0.7,1-1.8,1.6-3.2,1.6c-2.3,0-4.1-1.6-4.1-4c0-2.3,1.8-3.9,4.1-3.9c1.4,0,2.5,0.6,3.2,1.6v-1.6H572.2z
		 M571.1,159.8c0-1.8-1.3-3-3.1-3c-1.8,0-3.1,1.2-3.1,3c0,1.8,1.3,3,3.1,3C569.8,162.8,571.1,161.5,571.1,159.8z"/>
	<path class="st3" d="M582.3,160.3h-6.8c0.1,1.7,1.4,2.8,3.2,2.8c1,0,1.9-0.4,2.5-1.1l0.6,0.7c-0.7,0.9-1.9,1.3-3.1,1.3
		c-2.5,0-4.3-1.7-4.3-4.1c0-2.4,1.7-4.1,4-4.1s3.9,1.7,3.9,4.1C582.4,160.1,582.3,160.2,582.3,160.3z M575.5,159.5h5.8
		c-0.1-1.6-1.3-2.7-2.9-2.7C576.8,156.8,575.7,157.9,575.5,159.5z"/>
	<path class="st3" d="M588.9,163.5c-0.4,0.4-1.1,0.6-1.7,0.6c-1.5,0-2.4-0.9-2.4-2.4v-4.9h-1.5v-0.9h1.5v-1.8h1.1v1.8h2.5v0.9h-2.5
		v4.8c0,1,0.5,1.5,1.4,1.5c0.4,0,0.9-0.1,1.2-0.4L588.9,163.5z"/>
</g>
<g class="st4">
	<path class="st3" d="M214.7,128.8v5.5h-19V130l9.2-8.6c2-1.8,2.2-2.9,2.2-3.9c0-1.6-1-2.5-3.1-2.5c-1.8,0-3.4,0.8-4.4,2.4l-5.1-2.9
		c1.9-3.1,5.3-5.1,10.1-5.1c5.6,0,9.5,2.9,9.5,7.4c0,2.4-0.7,4.5-4.2,7.8l-4.6,4.3H214.7z"/>
	<path class="st3" d="M224.8,130.7c0,1-0.1,1.7-1.2,4l-2.2,5.1h-4.2l1.6-5.7c-1.3-0.6-2.1-1.8-2.1-3.4c0-2.4,1.7-3.9,4-3.9
		C223.1,126.8,224.8,128.3,224.8,130.7z"/>
	<path class="st3" d="M226.4,122.1c0-8.1,4.5-12.7,10.8-12.7c6.2,0,10.8,4.6,10.8,12.7s-4.5,12.7-10.8,12.7
		C231,134.8,226.4,130.2,226.4,122.1z M241,122.1c0-5.1-1.6-7.1-3.8-7.1c-2.2,0-3.8,1.9-3.8,7.1s1.6,7.1,3.8,7.1
		C239.4,129.2,241,127.2,241,122.1z"/>
	<path class="st3" d="M250.4,122.1c0-8.1,4.5-12.7,10.8-12.7c6.2,0,10.8,4.6,10.8,12.7s-4.5,12.7-10.8,12.7
		C254.9,134.8,250.4,130.2,250.4,122.1z M265,122.1c0-5.1-1.6-7.1-3.8-7.1c-2.2,0-3.8,1.9-3.8,7.1s1.6,7.1,3.8,7.1
		C263.4,129.2,265,127.2,265,122.1z"/>
	<path class="st3" d="M274.3,122.1c0-8.1,4.5-12.7,10.8-12.7c6.2,0,10.8,4.6,10.8,12.7s-4.5,12.7-10.8,12.7
		C278.8,134.8,274.3,130.2,274.3,122.1z M288.9,122.1c0-5.1-1.6-7.1-3.8-7.1c-2.2,0-3.8,1.9-3.8,7.1s1.6,7.1,3.8,7.1
		C287.3,129.2,288.9,127.2,288.9,122.1z"/>
	<path class="st3" d="M316.3,124.7h-5.9v5.8h-5.4v-5.8h-5.9v-5.1h5.9v-5.8h5.4v5.8h5.9V124.7z"/>
</g>
<g class="st4">
	<path class="st3" d="M226.5,151.3h-6l-1.3,2.9H218l4.9-10.8h1.1l4.9,10.8h-1.2L226.5,151.3z M226.1,150.4l-2.6-5.8l-2.6,5.8H226.1z
		"/>
</g>
<g class="st4">
	<path class="st3" d="M234.8,153.7c-0.4,0.4-1.1,0.6-1.7,0.6c-1.5,0-2.4-0.9-2.4-2.4V147h-1.5V146h1.5v-1.8h1.1v1.8h2.5v0.9h-2.5
		v4.8c0,1,0.5,1.5,1.4,1.5c0.4,0,0.9-0.1,1.2-0.4L234.8,153.7z"/>
</g>
<g class="st4">
	<path class="st3" d="M240.9,153.7c-0.4,0.4-1.1,0.6-1.7,0.6c-1.5,0-2.4-0.9-2.4-2.4V147h-1.5V146h1.5v-1.8h1.1v1.8h2.5v0.9h-2.5
		v4.8c0,1,0.5,1.5,1.4,1.5c0.4,0,0.9-0.1,1.2-0.4L240.9,153.7z"/>
</g>
<g class="st4">
	<path class="st3" d="M249.7,150.5h-6.8c0.1,1.7,1.4,2.8,3.2,2.8c1,0,1.9-0.4,2.5-1.1l0.6,0.7c-0.7,0.9-1.9,1.3-3.1,1.3
		c-2.5,0-4.3-1.7-4.3-4.1c0-2.4,1.7-4.1,4-4.1c2.3,0,3.9,1.7,3.9,4.1C249.7,150.2,249.7,150.3,249.7,150.5z M242.9,149.6h5.8
		c-0.1-1.6-1.3-2.7-2.9-2.7C244.2,146.9,243,148,242.9,149.6z"/>
</g>
<g class="st4">
	<path class="st3" d="M259.4,149.5v4.7h-1.1v-4.6c0-1.7-0.9-2.6-2.4-2.6c-1.7,0-2.8,1.1-2.8,2.9v4.3h-1.1V146h1v1.5
		c0.6-1,1.7-1.6,3.1-1.6C258,146,259.4,147.1,259.4,149.5z"/>
</g>
<g class="st4">
	<path class="st3" d="M269.8,142.7v11.5h-1.1v-1.6c-0.7,1.1-1.8,1.7-3.1,1.7c-2.3,0-4-1.7-4-4.1c0-2.5,1.7-4.1,4-4.1
		c1.3,0,2.4,0.6,3.1,1.6v-4.9H269.8z M268.7,150.1c0-1.9-1.3-3.2-3-3.2c-1.7,0-3,1.3-3,3.2s1.3,3.2,3,3.2
		C267.4,153.3,268.7,152,268.7,150.1z"/>
	<path class="st3" d="M279.9,150.5h-6.8c0.1,1.7,1.4,2.8,3.2,2.8c1,0,1.9-0.4,2.5-1.1l0.6,0.7c-0.7,0.9-1.9,1.3-3.1,1.3
		c-2.5,0-4.3-1.7-4.3-4.1c0-2.4,1.7-4.1,4-4.1c2.3,0,3.9,1.7,3.9,4.1C280,150.2,279.9,150.3,279.9,150.5z M273.1,149.6h5.8
		c-0.1-1.6-1.3-2.7-2.9-2.7C274.4,146.9,273.3,148,273.1,149.6z"/>
	<path class="st3" d="M281.1,153.2l0.5-0.9c0.6,0.5,1.7,0.9,2.9,0.9c1.5,0,2.2-0.5,2.2-1.3c0-2.1-5.3-0.4-5.3-3.7
		c0-1.3,1.1-2.3,3.2-2.3c1.1,0,2.2,0.3,2.9,0.8l-0.5,0.9c-0.7-0.5-1.6-0.7-2.4-0.7c-1.5,0-2.1,0.6-2.1,1.3c0,2.2,5.3,0.5,5.3,3.7
		c0,1.4-1.2,2.3-3.4,2.3C283,154.2,281.7,153.8,281.1,153.2z"/>
	<path class="st3" d="M288.6,153.2l0.5-0.9c0.6,0.5,1.7,0.9,2.9,0.9c1.5,0,2.2-0.5,2.2-1.3c0-2.1-5.3-0.4-5.3-3.7
		c0-1.3,1.1-2.3,3.2-2.3c1.1,0,2.2,0.3,2.9,0.8l-0.5,0.9c-0.7-0.5-1.6-0.7-2.4-0.7c-1.5,0-2.1,0.6-2.1,1.3c0,2.2,5.3,0.5,5.3,3.7
		c0,1.4-1.2,2.3-3.4,2.3C290.6,154.2,289.3,153.8,288.6,153.2z"/>
</g>
<g class="st4">
	<path class="st3" d="M686.2,126.7c0,4.2-3.3,8.1-10.7,8.1c-3.4,0-7-0.8-9.5-2.4l2.5-5.2c2,1.3,4.5,2,6.8,2c2.3,0,3.9-0.9,3.9-2.5
		c0-1.5-1.1-2.4-3.7-2.4h-2.9v-4.4l4.4-4.7h-9.6v-5.3H685v4.3l-5.1,5.4C684,120.5,686.2,123.2,686.2,126.7z"/>
	<path class="st3" d="M688.4,122.1c0-8.1,4.5-12.7,10.8-12.7c6.2,0,10.8,4.6,10.8,12.7s-4.5,12.7-10.8,12.7
		C693,134.8,688.4,130.2,688.4,122.1z M703,122.1c0-5.1-1.6-7.1-3.8-7.1c-2.2,0-3.8,1.9-3.8,7.1s1.6,7.1,3.8,7.1
		C701.4,129.2,703,127.2,703,122.1z"/>
	<path class="st3" d="M712.4,122.1c0-8.1,4.5-12.7,10.8-12.7c6.2,0,10.8,4.6,10.8,12.7s-4.5,12.7-10.8,12.7
		C716.9,134.8,712.4,130.2,712.4,122.1z M727,122.1c0-5.1-1.6-7.1-3.8-7.1c-2.2,0-3.8,1.9-3.8,7.1s1.6,7.1,3.8,7.1
		C725.3,129.2,727,127.2,727,122.1z"/>
	<path class="st3" d="M736.3,122.1c0-8.1,4.5-12.7,10.8-12.7c6.2,0,10.8,4.6,10.8,12.7s-4.5,12.7-10.8,12.7
		C740.8,134.8,736.3,130.2,736.3,122.1z M750.9,122.1c0-5.1-1.6-7.1-3.8-7.1c-2.2,0-3.8,1.9-3.8,7.1s1.6,7.1,3.8,7.1
		C749.3,129.2,750.9,127.2,750.9,122.1z"/>
	<path class="st3" d="M778.3,124.7h-5.9v5.8h-5.4v-5.8h-5.9v-5.1h5.9v-5.8h5.4v5.8h5.9V124.7z"/>
</g>
<g class="st4">
	<path class="st3" d="M662,144.4h-3.8v-1h8.7v1h-3.8v9.8H662V144.4z"/>
</g>
<g class="st4">
	<path class="st3" d="M680,146l-3.1,8.1h-1l-2.6-6.7l-2.6,6.7h-1l-3.1-8.1h1l2.5,6.9l2.6-6.9h0.9l2.6,6.9l2.6-6.9H680z"/>
	<path class="st3" d="M681.4,143.5c0-0.4,0.4-0.8,0.8-0.8c0.4,0,0.8,0.3,0.8,0.8c0,0.4-0.3,0.8-0.8,0.8
		C681.7,144.3,681.4,143.9,681.4,143.5z M681.6,146h1.1v8.1h-1.1V146z"/>
</g>
<g class="st4">
	<path class="st3" d="M690.1,153.7c-0.4,0.4-1.1,0.6-1.7,0.6c-1.5,0-2.4-0.9-2.4-2.4V147h-1.5V146h1.5v-1.8h1.1v1.8h2.5v0.9h-2.5
		v4.8c0,1,0.5,1.5,1.4,1.5c0.4,0,0.9-0.1,1.2-0.4L690.1,153.7z"/>
</g>
<g class="st4">
	<path class="st3" d="M696.1,153.7c-0.4,0.4-1.1,0.6-1.7,0.6c-1.5,0-2.4-0.9-2.4-2.4V147h-1.5V146h1.5v-1.8h1.1v1.8h2.5v0.9h-2.5
		v4.8c0,1,0.5,1.5,1.4,1.5c0.4,0,0.9-0.1,1.2-0.4L696.1,153.7z"/>
</g>
<g class="st4">
	<path class="st3" d="M704.9,150.5h-6.8c0.1,1.7,1.4,2.8,3.2,2.8c1,0,1.9-0.4,2.5-1.1l0.6,0.7c-0.7,0.9-1.9,1.3-3.1,1.3
		c-2.5,0-4.3-1.7-4.3-4.1c0-2.4,1.7-4.1,4-4.1c2.3,0,3.9,1.7,3.9,4.1C704.9,150.2,704.9,150.3,704.9,150.5z M698.1,149.6h5.8
		c-0.1-1.6-1.3-2.7-2.9-2.7C699.4,146.9,698.3,148,698.1,149.6z"/>
	<path class="st3" d="M711.3,146v1.1c-0.1,0-0.2,0-0.3,0c-1.7,0-2.7,1.1-2.7,3v4.1h-1.1V146h1v1.6C708.7,146.6,709.8,146,711.3,146z
		"/>
</g>
<g class="st4">
	<path class="st3" d="M718.8,144.4v4.2h5.6v1h-5.6v4.6h-1.1v-10.8h7.4v1H718.8z"/>
</g>
<g class="st4">
	<path class="st3" d="M726.1,150.1c0-2.4,1.8-4.1,4.1-4.1s4.1,1.7,4.1,4.1c0,2.4-1.7,4.1-4.1,4.1S726.1,152.5,726.1,150.1z
		 M733.3,150.1c0-1.9-1.3-3.2-3-3.2s-3,1.3-3,3.2s1.3,3.2,3,3.2S733.3,152,733.3,150.1z"/>
	<path class="st3" d="M736.6,142.7h1.1v11.5h-1.1V142.7z"/>
	<path class="st3" d="M740.8,142.7h1.1v11.5h-1.1V142.7z"/>
</g>
<g class="st4">
	<path class="st3" d="M744.1,150.1c0-2.4,1.8-4.1,4.1-4.1s4.1,1.7,4.1,4.1c0,2.4-1.7,4.1-4.1,4.1S744.1,152.5,744.1,150.1z
		 M751.2,150.1c0-1.9-1.3-3.2-3-3.2s-3,1.3-3,3.2s1.3,3.2,3,3.2S751.2,152,751.2,150.1z"/>
</g>
<g class="st4">
	<path class="st3" d="M766.3,146l-3.1,8.1h-1l-2.6-6.7l-2.6,6.7h-1L753,146h1l2.5,6.9l2.6-6.9h0.9l2.6,6.9l2.6-6.9H766.3z"/>
</g>
<g class="st4">
	<path class="st3" d="M774.8,150.5H768c0.1,1.7,1.4,2.8,3.2,2.8c1,0,1.9-0.4,2.5-1.1l0.6,0.7c-0.7,0.9-1.9,1.3-3.1,1.3
		c-2.5,0-4.3-1.7-4.3-4.1c0-2.4,1.7-4.1,4-4.1c2.3,0,3.9,1.7,3.9,4.1C774.8,150.2,774.8,150.3,774.8,150.5z M768,149.6h5.8
		c-0.1-1.6-1.3-2.7-2.9-2.7C769.3,146.9,768.1,148,768,149.6z"/>
</g>
<g class="st4">
	<path class="st3" d="M781.1,146v1.1c-0.1,0-0.2,0-0.3,0c-1.7,0-2.7,1.1-2.7,3v4.1h-1.1V146h1v1.6C778.6,146.6,779.6,146,781.1,146z
		"/>
</g>
<g class="st4">
	<path class="st3" d="M782.1,153.2l0.5-0.9c0.6,0.5,1.7,0.9,2.9,0.9c1.5,0,2.2-0.5,2.2-1.3c0-2.1-5.3-0.4-5.3-3.7
		c0-1.3,1.1-2.3,3.2-2.3c1,0,2.2,0.3,2.9,0.8l-0.5,0.9c-0.7-0.5-1.6-0.7-2.4-0.7c-1.5,0-2.1,0.6-2.1,1.3c0,2.2,5.3,0.5,5.3,3.7
		c0,1.4-1.2,2.3-3.4,2.3C784,154.2,782.7,153.8,782.1,153.2z"/>
</g>
<g class="st4">
	<path class="st7" d="M399.4,129.6h-3.8v4.9h-7.1v-4.9H375v-4.7l11.5-16h7.5l-10.4,15h5.2v-4.4h6.8v4.4h3.8V129.6z"/>
	<path class="st7" d="M400.8,121.7c0-8.4,4.8-13.3,11.3-13.3c6.5,0,11.3,4.9,11.3,13.3s-4.8,13.3-11.3,13.3
		C405.6,135,400.8,130.1,400.8,121.7z M416.1,121.7c0-5.4-1.7-7.4-4-7.4c-2.3,0-4,2-4,7.4s1.7,7.4,4,7.4
		C414.4,129.1,416.1,127,416.1,121.7z"/>
	<path class="st7" d="M444.9,124.3h-6.2v6h-5.6v-6h-6.2V119h6.2v-6h5.6v6h6.2V124.3z"/>
</g>
<g class="st4">
	<path class="st7" d="M395,145h-4v-1h9.1v1h-4v10.3H395V145z"/>
</g>
<g class="st4">
	<path class="st7" d="M407.8,150v5.3h-1.1v-1.3c-0.5,0.9-1.5,1.4-2.9,1.4c-1.9,0-3.1-1-3.1-2.5c0-1.3,0.8-2.4,3.3-2.4h2.7v-0.5
		c0-1.5-0.8-2.2-2.4-2.2c-1.1,0-2.1,0.4-2.8,1l-0.5-0.9c0.9-0.7,2.1-1.1,3.5-1.1C406.6,146.7,407.8,147.8,407.8,150z M406.7,152.7
		v-1.4H404c-1.6,0-2.2,0.6-2.2,1.5c0,1,0.8,1.6,2.1,1.6C405.3,154.4,406.2,153.8,406.7,152.7z"/>
	<path class="st7" d="M410.9,143.2h1.1v12h-1.1V143.2z"/>
</g>
<g class="st4">
	<path class="st7" d="M418.4,151l-2,1.8v2.4h-1.1v-12h1.1v8.1l5.1-4.6h1.4l-3.6,3.5l4,5h-1.4L418.4,151z"/>
</g>
<g class="st4">
	<path class="st7" d="M423.6,154.3l0.5-0.9c0.7,0.5,1.8,1,3,1c1.6,0,2.3-0.5,2.3-1.4c0-2.2-5.5-0.5-5.5-3.8c0-1.4,1.2-2.4,3.4-2.4
		c1.1,0,2.3,0.3,3,0.8l-0.5,0.9c-0.7-0.5-1.6-0.7-2.5-0.7c-1.5,0-2.2,0.6-2.2,1.4c0,2.3,5.5,0.6,5.5,3.8c0,1.5-1.3,2.4-3.5,2.4
		C425.6,155.3,424.3,154.9,423.6,154.3z"/>
</g>
<g id="Group_1183">
	<g>
		<g>
			<defs>
				<rect id="SVGID_00000116214064410515105990000011306017777332742537_" y="0" width="816.4" height="262.9"/>
			</defs>
			<clipPath id="SVGID_00000130641333573736050970000001301830736564884356_">
				<use xlink:href="#SVGID_00000116214064410515105990000011306017777332742537_"  style="overflow:visible;"/>
			</clipPath>
			<g id="Group_1182" style="clip-path:url(#SVGID_00000130641333573736050970000001301830736564884356_);">
				<g id="Path_4185">
					<path class="st7" d="M322.1,80.2c9.2-0.2,16.7,7.2,16.9,16.3s-7.2,16.7-16.3,16.9c-9.2,0.2-16.7-7.2-16.9-16.3
						c0-0.1,0-0.2,0-0.3C305.7,87.7,313,80.2,322.1,80.2"/>
				</g>
				<g id="Path_4186">
					<path class="st7" d="M171,157.4c5.5-0.1,10,4.3,10,9.7c0.1,5.5-4.3,10-9.7,10c-5.5,0.1-10-4.3-10-9.7c0-0.1,0-0.1,0-0.2
						C161.3,161.9,165.6,157.5,171,157.4"/>
				</g>
				<g id="Path_4187">
					<path class="st7" d="M646.2,89.1c5.5-0.1,10,4.3,10,9.7c0.1,5.5-4.3,10-9.7,10c-5.5,0.1-10-4.3-10-9.7c0-0.1,0-0.1,0-0.2
						C636.5,93.6,640.8,89.1,646.2,89.1"/>
				</g>
				<g id="Path_4188">
					<path class="st7" d="M495.2,152.9c9.2-0.2,16.7,7.2,16.9,16.3s-7.2,16.7-16.3,16.9s-16.7-7.2-16.9-16.3c0-0.1,0-0.2,0-0.3
						C478.8,160.4,486.1,153,495.2,152.9"/>
				</g>
			</g>
		</g>
	</g>
</g>
</svg>
