<svg id="Layer_2" data-name="Layer 2" xmlns="http://www.w3.org/2000/svg" width="29.279" height="30.573" viewBox="0 0 29.279 30.573">
  <g id="Layer_1" data-name="Layer 1">
    <path id="Path_65" data-name="Path 65" d="M26,13.425,14.775,4.792V3.448h0V3.9a.458.458,0,0,0,.318-.488l-.336-3.3a.128.128,0,0,0-.256,0l-.348,3.3a.458.458,0,0,0,.318.488v.9l-11.2,8.628A7.736,7.736,0,0,0-.008,20.191a.611.611,0,0,0,.44.611.916.916,0,0,0,.989-.33l.281-.366a1.893,1.893,0,0,1,1.16-.794.281.281,0,0,1,.348.281V30.009a.519.519,0,0,0,.519.513h8.6a.611.611,0,0,0,.58-.611V24.483a.574.574,0,0,1,.574-.574h2.29a.611.611,0,0,1,.58.574v5.459a.574.574,0,0,0,.574.611h8.616a.519.519,0,0,0,.519-.519V19.653a.287.287,0,0,1,.342-.287,1.905,1.905,0,0,1,1.154.775l.256.385a.788.788,0,0,0,1.447-.452A8.341,8.341,0,0,0,26,13.425Z" transform="translate(0.02 0.02)" fill="#000ceb"/>
  </g>
</svg>
